<?xml version="1.0" encoding="UTF-8" standalone="no"?>
<!DOCTYPE svg PUBLIC "-//W3C//DTD SVG 1.1//EN" "http://www.w3.org/Graphics/SVG/1.1/DTD/svg11.dtd">
<!-- Generated by graphviz version 2.40.1 (20161225.0304)
 -->
<!-- Title: G Pages: 1 -->
<svg width="438pt" height="121pt" viewBox="0.00 0.00 438.19 121.28" xmlns="http://www.w3.org/2000/svg" xmlns:xlink="http://www.w3.org/1999/xlink">
<g id="graph0" class="graph" transform="scale(1 1) rotate(0) translate(4 117.2754)">
<title>G</title>
<polygon fill="#9fb6cd" stroke="transparent" points="-4,4 -4,-117.2754 434.1856,-117.2754 434.1856,4 -4,4"/>
<!-- 0 -->
<g id="node1" class="node">
<title>0</title>
<ellipse fill="none" stroke="#000000" cx="86.101" cy="-48.4756" rx="27" ry="18"/>
<text text-anchor="middle" x="86.101" y="-44.2756" font-family="Times,serif" font-size="14.00" fill="#000000">0</text>
</g>
<!-- 0&#45;&gt;0 -->
<g id="edge2" class="edge">
<title>0:w-&gt;0:w</title>
<path fill="none" stroke="#000000" d="M59.101,-48.4756C53.101,-57.4756 41.101,-57.4756 41.101,-48.4756 41.101,-42.71 46.0258,-40.638 51.143,-42.2596"/>
<polygon fill="#000000" stroke="#000000" points="49.0657,-45.0781 59.101,-48.4756 53.3747,-39.5616 49.0657,-45.0781"/>
<text text-anchor="middle" x="29.5505" y="-52.6756" font-family="Times,serif" font-size="14.00" fill="#000000">tout sauf b</text>
</g>
<!-- 1 -->
<g id="node2" class="node">
<title>1</title>
<ellipse fill="none" stroke="#000000" cx="217.101" cy="-48.4756" rx="27" ry="18"/>
<text text-anchor="middle" x="217.101" y="-44.2756" font-family="Times,serif" font-size="14.00" fill="#000000">1</text>
</g>
<!-- 0&#45;&gt;1 -->
<g id="edge1" class="edge">
<title>0-&gt;1</title>
<path fill="none" stroke="#000000" d="M107.5434,-37.257C121.0094,-31.4865 138.8464,-26.1431 155.101,-28.6756 164.694,-30.1702 174.8318,-32.892 184.068,-35.8488"/>
<polygon fill="#000000" stroke="#000000" points="183.0737,-39.2074 193.668,-39.1026 185.3208,-32.5778 183.0737,-39.2074"/>
<text text-anchor="middle" x="151.601" y="-32.8756" font-family="Times,serif" font-size="14.00" fill="#000000">b</text>
</g>
<!-- 1&#45;&gt;0 -->
<g id="edge4" class="edge">
<title>1-&gt;0</title>
<path fill="none" stroke="#000000" d="M189.9925,-48.4756C170.7673,-48.4756 144.7224,-48.4756 123.5199,-48.4756"/>
<polygon fill="#000000" stroke="#000000" points="123.2443,-44.9757 113.2443,-48.4756 123.2443,-51.9757 123.2443,-44.9757"/>
<text text-anchor="middle" x="151.601" y="-55.6756" font-family="Times,serif" font-size="14.00" fill="#000000">tout sauf o</text>
</g>
<!-- 2 -->
<g id="node3" class="node">
<title>2</title>
<ellipse fill="none" stroke="#000000" cx="307.101" cy="-48.4756" rx="27" ry="18"/>
<text text-anchor="middle" x="307.101" y="-44.2756" font-family="Times,serif" font-size="14.00" fill="#000000">2</text>
</g>
<!-- 1&#45;&gt;2 -->
<g id="edge3" class="edge">
<title>1-&gt;2</title>
<path fill="none" stroke="#000000" d="M244.104,-48.4756C252.1287,-48.4756 261.0675,-48.4756 269.6319,-48.4756"/>
<polygon fill="#000000" stroke="#000000" points="269.8061,-51.9757 279.806,-48.4756 269.806,-44.9757 269.8061,-51.9757"/>
<text text-anchor="middle" x="262.101" y="-55.6756" font-family="Times,serif" font-size="14.00" fill="#000000">o</text>
</g>
<!-- 2&#45;&gt;0 -->
<g id="edge6" class="edge">
<title>2-&gt;0</title>
<path fill="none" stroke="#000000" d="M286.2252,-59.9598C274.2795,-65.8731 258.7884,-72.4609 244.101,-75.4756 201.0549,-84.3112 150.9966,-71.9734 118.9554,-61.2214"/>
<polygon fill="#000000" stroke="#000000" points="119.812,-57.8132 109.2172,-57.8151 117.5008,-64.4206 119.812,-57.8132"/>
<text text-anchor="middle" x="167.1119" y="-82.0939" font-family="Times,serif" font-size="14.00" fill="#000000">tout sauf b</text>
</g>
<!-- 3 -->
<g id="node4" class="node">
<title>3</title>
<ellipse fill="none" stroke="#000000" cx="397.101" cy="-48.4756" rx="27" ry="18"/>
<text text-anchor="middle" x="397.101" y="-44.2756" font-family="Times,serif" font-size="14.00" fill="#000000">3</text>
</g>
<!-- 2&#45;&gt;3 -->
<g id="edge5" class="edge">
<title>2-&gt;3</title>
<path fill="none" stroke="#000000" d="M334.104,-48.4756C342.1287,-48.4756 351.0675,-48.4756 359.6319,-48.4756"/>
<polygon fill="#000000" stroke="#000000" points="359.8061,-51.9757 369.806,-48.4756 359.806,-44.9757 359.8061,-51.9757"/>
<text text-anchor="middle" x="352.101" y="-52.6756" font-family="Times,serif" font-size="14.00" fill="#000000">b</text>
</g>
<!-- 3&#45;&gt;0 -->
<g id="edge9" class="edge">
<title>3:e-&gt;0:s</title>
<path fill="none" stroke="#000000" d="M424.101,-48.4756C436.8976,-48.4756 425.9235,-26.3727 414.101,-21.4756 368.1123,-2.4265 239.8324,-19.3278 190.101,-21.4756 170.6369,-22.3163 110.5113,-11.7309 91.7516,-22.0603"/>
<polygon fill="#000000" stroke="#000000" points="88.7698,-20.2224 86.101,-30.4756 94.5813,-24.1246 88.7698,-20.2224"/>
<text text-anchor="middle" x="210.2198" y="-4.2" font-family="Times,serif" font-size="14.00" fill="#000000">autre que b et o</text>
</g>
<!-- 3&#45;&gt;1 -->
<g id="edge8" class="edge">
<title>3:sw-&gt;1:s</title>
<path fill="none" stroke="#000000" d="M382.101,-33.4756C349.8244,-1.199 325.6321,-18.2398 280.101,-21.4756 256.2962,-23.1674 227.8114,-8.2756 219.4911,-20.5703"/>
<polygon fill="#000000" stroke="#000000" points="216.0443,-19.9336 217.101,-30.4756 222.849,-21.5756 216.0443,-19.9336"/>
<text text-anchor="middle" x="276.5923" y="-25.6762" font-family="Times,serif" font-size="14.00" fill="#000000">b</text>
</g>
<!-- 3&#45;&gt;2 -->
<g id="edge7" class="edge">
<title>3:n-&gt;2:n</title>
<path fill="none" stroke="#000000" d="M397.101,-66.4756C397.101,-102.8819 322.5464,-106.1528 309.1499,-76.2883"/>
<polygon fill="#000000" stroke="#000000" points="312.5711,-75.5491 307.101,-66.4756 305.7189,-76.9799 312.5711,-75.5491"/>
<text text-anchor="middle" x="348.4259" y="-100.6754" font-family="Times,serif" font-size="14.00" fill="#000000">o</text>
</g>
</g>
</svg>