<?xml version="1.0" encoding="UTF-8" standalone="no"?>
<!DOCTYPE svg PUBLIC "-//W3C//DTD SVG 1.1//EN" "http://www.w3.org/Graphics/SVG/1.1/DTD/svg11.dtd">
<!-- Generated by graphviz version 2.40.1 (20161225.0304)
 -->
<!-- Title: G Pages: 1 -->
<svg width="252pt" height="260pt" viewBox="0.00 0.00 252.00 260.00" xmlns="http://www.w3.org/2000/svg" xmlns:xlink="http://www.w3.org/1999/xlink">
<g id="graph0" class="graph" transform="scale(1 1) rotate(0) translate(4 256)">
<title>G</title>
<polygon fill="#9fb6cd" stroke="transparent" points="-4,4 -4,-256 248,-256 248,4 -4,4"/>
<!-- A -->
<g id="node1" class="node">
<title>A</title>
<ellipse fill="none" stroke="#000000" cx="126" cy="-234" rx="27" ry="18"/>
<text text-anchor="middle" x="126" y="-229.8" font-family="Times,serif" font-size="14.00" fill="#000000">A</text>
</g>
<!-- B -->
<g id="node2" class="node">
<title>B</title>
<ellipse fill="none" stroke="#000000" cx="90" cy="-162" rx="27" ry="18"/>
<text text-anchor="middle" x="90" y="-157.8" font-family="Times,serif" font-size="14.00" fill="#000000">B</text>
</g>
<!-- A&#45;&gt;B -->
<g id="edge1" class="edge">
<title>A-&gt;B</title>
<path fill="none" stroke="#000000" d="M117.2854,-216.5708C113.0403,-208.0807 107.8464,-197.6929 103.1337,-188.2674"/>
<polygon fill="#000000" stroke="#000000" points="106.237,-186.6477 98.6343,-179.2687 99.976,-189.7782 106.237,-186.6477"/>
</g>
<!-- E -->
<g id="node6" class="node">
<title>E</title>
<ellipse fill="none" stroke="#000000" cx="162" cy="-162" rx="27" ry="18"/>
<text text-anchor="middle" x="162" y="-157.8" font-family="Times,serif" font-size="14.00" fill="#000000">E</text>
</g>
<!-- A&#45;&gt;E -->
<g id="edge5" class="edge">
<title>A-&gt;E</title>
<path fill="none" stroke="#000000" d="M134.7146,-216.5708C138.9597,-208.0807 144.1536,-197.6929 148.8663,-188.2674"/>
<polygon fill="#000000" stroke="#000000" points="152.024,-189.7782 153.3657,-179.2687 145.763,-186.6477 152.024,-189.7782"/>
</g>
<!-- C -->
<g id="node3" class="node">
<title>C</title>
<ellipse fill="none" stroke="#000000" cx="27" cy="-90" rx="27" ry="18"/>
<text text-anchor="middle" x="27" y="-85.8" font-family="Times,serif" font-size="14.00" fill="#000000">C</text>
</g>
<!-- B&#45;&gt;C -->
<g id="edge2" class="edge">
<title>B-&gt;C</title>
<path fill="none" stroke="#000000" d="M76.3299,-146.3771C67.8266,-136.659 56.7387,-123.987 47.2292,-113.1191"/>
<polygon fill="#000000" stroke="#000000" points="49.8625,-110.8135 40.6434,-105.5924 44.5944,-115.423 49.8625,-110.8135"/>
</g>
<!-- D -->
<g id="node4" class="node">
<title>D</title>
<ellipse fill="none" stroke="#000000" cx="99" cy="-90" rx="27" ry="18"/>
<text text-anchor="middle" x="99" y="-85.8" font-family="Times,serif" font-size="14.00" fill="#000000">D</text>
</g>
<!-- B&#45;&gt;D -->
<g id="edge3" class="edge">
<title>B-&gt;D</title>
<path fill="none" stroke="#000000" d="M92.2711,-143.8314C93.2336,-136.131 94.3782,-126.9743 95.4479,-118.4166"/>
<polygon fill="#000000" stroke="#000000" points="98.9309,-118.7702 96.6983,-108.4133 91.9849,-117.9019 98.9309,-118.7702"/>
</g>
<!-- G -->
<g id="node5" class="node">
<title>G</title>
<ellipse fill="none" stroke="#000000" cx="145" cy="-18" rx="27" ry="18"/>
<text text-anchor="middle" x="145" y="-13.8" font-family="Times,serif" font-size="14.00" fill="#000000">G</text>
</g>
<!-- D&#45;&gt;G -->
<g id="edge4" class="edge">
<title>D-&gt;G</title>
<path fill="none" stroke="#000000" d="M109.6689,-73.3008C115.3586,-64.3952 122.4777,-53.2524 128.8316,-43.307"/>
<polygon fill="#000000" stroke="#000000" points="131.9544,-44.92 134.3889,-34.6087 126.0555,-41.1513 131.9544,-44.92"/>
</g>
<!-- E&#45;&gt;G -->
<g id="edge9" class="edge">
<title>E-&gt;G</title>
<path fill="none" stroke="#000000" d="M159.8813,-144.0535C156.9927,-119.5852 151.787,-75.4896 148.3622,-46.4799"/>
<polygon fill="#000000" stroke="#000000" points="151.7938,-45.6934 147.1454,-36.1727 144.842,-46.5141 151.7938,-45.6934"/>
</g>
<!-- F -->
<g id="node7" class="node">
<title>F</title>
<ellipse fill="none" stroke="#000000" cx="209" cy="-90" rx="27" ry="18"/>
<text text-anchor="middle" x="209" y="-85.8" font-family="Times,serif" font-size="14.00" fill="#000000">F</text>
</g>
<!-- E&#45;&gt;F -->
<g id="edge6" class="edge">
<title>E-&gt;F</title>
<path fill="none" stroke="#000000" d="M172.9009,-145.3008C178.7736,-136.3043 186.1366,-125.0247 192.6787,-115.0029"/>
<polygon fill="#000000" stroke="#000000" points="195.6228,-116.8957 198.1582,-106.6087 189.7611,-113.0693 195.6228,-116.8957"/>
</g>
<!-- F&#45;&gt;G -->
<g id="edge7" class="edge">
<title>F-&gt;G</title>
<path fill="none" stroke="#000000" d="M195.113,-74.3771C186.4747,-64.659 175.2107,-51.987 165.5503,-41.1191"/>
<polygon fill="#000000" stroke="#000000" points="168.1196,-38.7413 158.8599,-33.5924 162.8877,-43.3918 168.1196,-38.7413"/>
</g>
<!-- H -->
<g id="node8" class="node">
<title>H</title>
<ellipse fill="none" stroke="#000000" cx="217" cy="-18" rx="27" ry="18"/>
<text text-anchor="middle" x="217" y="-13.8" font-family="Times,serif" font-size="14.00" fill="#000000">H</text>
</g>
<!-- F&#45;&gt;H -->
<g id="edge8" class="edge">
<title>F-&gt;H</title>
<path fill="none" stroke="#000000" d="M211.0187,-71.8314C211.8743,-64.131 212.8917,-54.9743 213.8426,-46.4166"/>
<polygon fill="#000000" stroke="#000000" points="217.3283,-46.7386 214.9541,-36.4133 210.3711,-45.9656 217.3283,-46.7386"/>
</g>
</g>
</svg>