<?xml version="1.0" encoding="UTF-8" standalone="no"?>
<!DOCTYPE svg PUBLIC "-//W3C//DTD SVG 1.1//EN" "http://www.w3.org/Graphics/SVG/1.1/DTD/svg11.dtd">
<!-- Generated by graphviz version 2.40.1 (20161225.0304)
 -->
<!-- Title: G Pages: 1 -->
<svg width="151pt" height="221pt" viewBox="0.00 0.00 151.00 221.00" xmlns="http://www.w3.org/2000/svg" xmlns:xlink="http://www.w3.org/1999/xlink">
<g id="graph0" class="graph" transform="scale(1 1) rotate(0) translate(4 217)">
<title>G</title>
<polygon fill="#ffffff" stroke="transparent" points="-4,4 -4,-217 147,-217 147,4 -4,4"/>
<!-- A -->
<g id="node1" class="node">
<title>A</title>
<ellipse fill="none" stroke="#000000" cx="27.325" cy="-93.3555" rx="27" ry="18"/>
<text text-anchor="middle" x="27.325" y="-89.1555" font-family="Times,serif" font-size="14.00" fill="#000000">A</text>
</g>
<!-- B -->
<g id="node2" class="node">
<title>B</title>
<ellipse fill="none" stroke="#000000" cx="94.3385" cy="-72.4128" rx="27" ry="18"/>
<text text-anchor="middle" x="94.3385" y="-68.2128" font-family="Times,serif" font-size="14.00" fill="#000000">B</text>
</g>
<!-- A&#45;&#45;B -->
<g id="edge1" class="edge">
<title>A--B</title>
<path fill="none" stroke="#000000" d="M51.8978,-85.6761C57.7252,-83.855 63.9414,-81.9123 69.7686,-80.0913"/>
</g>
<!-- C -->
<g id="node4" class="node">
<title>C</title>
<ellipse fill="none" stroke="#000000" cx="47.6631" cy="-141.4878" rx="27" ry="18"/>
<text text-anchor="middle" x="47.6631" y="-137.2878" font-family="Times,serif" font-size="14.00" fill="#000000">C</text>
</g>
<!-- A&#45;&#45;C -->
<g id="edge3" class="edge">
<title>A--C</title>
<path fill="none" stroke="#000000" d="M34.6675,-110.7324C36.488,-115.0408 38.4398,-119.6599 40.2631,-123.9748"/>
</g>
<!-- F -->
<g id="node3" class="node">
<title>F</title>
<ellipse fill="none" stroke="#000000" cx="71.1342" cy="-17.5281" rx="27" ry="18"/>
<text text-anchor="middle" x="71.1342" y="-13.3281" font-family="Times,serif" font-size="14.00" fill="#000000">F</text>
</g>
<!-- B&#45;&#45;F -->
<g id="edge2" class="edge">
<title>B--F</title>
<path fill="none" stroke="#000000" d="M86.9965,-55.047C84.2879,-48.6403 81.2195,-41.3827 78.5081,-34.9694"/>
</g>
<!-- D -->
<g id="node5" class="node">
<title>D</title>
<ellipse fill="none" stroke="#000000" cx="116.478" cy="-154.7221" rx="27" ry="18"/>
<text text-anchor="middle" x="116.478" y="-150.5221" font-family="Times,serif" font-size="14.00" fill="#000000">D</text>
</g>
<!-- C&#45;&#45;D -->
<g id="edge4" class="edge">
<title>C--D</title>
<path fill="none" stroke="#000000" d="M73.6791,-146.4911C79.1598,-147.5452 84.9431,-148.6574 90.4252,-149.7117"/>
</g>
<!-- E -->
<g id="node6" class="node">
<title>E</title>
<ellipse fill="none" stroke="#000000" cx="30.0324" cy="-194.8174" rx="27" ry="18"/>
<text text-anchor="middle" x="30.0324" y="-190.6174" font-family="Times,serif" font-size="14.00" fill="#000000">E</text>
</g>
<!-- C&#45;&#45;E -->
<g id="edge5" class="edge">
<title>C--E</title>
<path fill="none" stroke="#000000" d="M41.7923,-159.2458C39.9091,-164.9422 37.8233,-171.2513 35.9376,-176.9551"/>
</g>
</g>
</svg>