<?xml version="1.0" encoding="UTF-8" standalone="no"?>
<!DOCTYPE svg PUBLIC "-//W3C//DTD SVG 1.1//EN" "http://www.w3.org/Graphics/SVG/1.1/DTD/svg11.dtd">
<!-- Generated by graphviz version 2.40.1 (20161225.0304)
 -->
<!-- Title: G Pages: 1 -->
<svg width="244pt" height="188pt" viewBox="0.00 0.00 244.00 188.00" xmlns="http://www.w3.org/2000/svg" xmlns:xlink="http://www.w3.org/1999/xlink">
<g id="graph0" class="graph" transform="scale(1 1) rotate(0) translate(4 184)">
<title>G</title>
<polygon fill="#9fb6cd" stroke="transparent" points="-4,4 -4,-184 240,-184 240,4 -4,4"/>
<!-- a -->
<g id="node1" class="node">
<title>a</title>
<ellipse fill="none" stroke="#000000" cx="27" cy="-90" rx="27" ry="18"/>
<text text-anchor="middle" x="27" y="-85.8" font-family="Times,serif" font-size="14.00" fill="#000000">a</text>
</g>
<!-- b -->
<g id="node2" class="node">
<title>b</title>
<ellipse fill="none" stroke="#000000" cx="82" cy="-162" rx="27" ry="18"/>
<text text-anchor="middle" x="82" y="-157.8" font-family="Times,serif" font-size="14.00" fill="#000000">b</text>
</g>
<!-- a&#45;&gt;b -->
<g id="edge1" class="edge">
<title>a-&gt;b</title>
<path fill="none" stroke="#000000" d="M39.431,-106.2733C46.4542,-115.4673 55.3745,-127.1448 63.2331,-137.4324"/>
<polygon fill="#000000" stroke="#000000" points="60.6679,-139.84 69.5196,-145.6621 66.2306,-135.5907 60.6679,-139.84"/>
</g>
<!-- c -->
<g id="node3" class="node">
<title>c</title>
<ellipse fill="none" stroke="#000000" cx="82" cy="-18" rx="27" ry="18"/>
<text text-anchor="middle" x="82" y="-13.8" font-family="Times,serif" font-size="14.00" fill="#000000">c</text>
</g>
<!-- a&#45;&gt;c -->
<g id="edge5" class="edge">
<title>a-&gt;c</title>
<path fill="none" stroke="#000000" d="M39.4804,-73.6621C46.5124,-64.4564 55.4347,-52.7764 63.2883,-42.4953"/>
<polygon fill="#000000" stroke="#000000" points="66.28,-44.3446 69.569,-34.2733 60.7172,-40.0953 66.28,-44.3446"/>
</g>
<!-- b&#45;&gt;c -->
<g id="edge2" class="edge">
<title>b-&gt;c</title>
<path fill="none" stroke="#000000" d="M82,-143.7623C82,-119.201 82,-75.2474 82,-46.3541"/>
<polygon fill="#000000" stroke="#000000" points="85.5001,-46.0896 82,-36.0896 78.5001,-46.0897 85.5001,-46.0896"/>
</g>
<!-- d -->
<g id="node4" class="node">
<title>d</title>
<ellipse fill="none" stroke="#000000" cx="137" cy="-90" rx="27" ry="18"/>
<text text-anchor="middle" x="137" y="-85.8" font-family="Times,serif" font-size="14.00" fill="#000000">d</text>
</g>
<!-- c&#45;&gt;d -->
<g id="edge3" class="edge">
<title>c-&gt;d</title>
<path fill="none" stroke="#000000" d="M94.431,-34.2733C101.4542,-43.4673 110.3745,-55.1448 118.2331,-65.4324"/>
<polygon fill="#000000" stroke="#000000" points="115.6679,-67.84 124.5196,-73.6621 121.2306,-63.5907 115.6679,-67.84"/>
</g>
<!-- d&#45;&gt;b -->
<g id="edge6" class="edge">
<title>d-&gt;b</title>
<path fill="none" stroke="#000000" d="M124.569,-106.2733C117.5458,-115.4673 108.6255,-127.1448 100.7669,-137.4324"/>
<polygon fill="#000000" stroke="#000000" points="97.7694,-135.5907 94.4804,-145.6621 103.3321,-139.84 97.7694,-135.5907"/>
</g>
<!-- e -->
<g id="node5" class="node">
<title>e</title>
<ellipse fill="none" stroke="#000000" cx="209" cy="-90" rx="27" ry="18"/>
<text text-anchor="middle" x="209" y="-85.8" font-family="Times,serif" font-size="14.00" fill="#000000">e</text>
</g>
<!-- d&#45;&gt;e -->
<g id="edge4" class="edge">
<title>d-&gt;e</title>
<path fill="none" stroke="#000000" d="M164,-90C166.6147,-90 169.2295,-90 171.8442,-90"/>
<polygon fill="#000000" stroke="#000000" points="171.9297,-93.5001 181.9297,-90 171.9297,-86.5001 171.9297,-93.5001"/>
</g>
</g>
</svg>