<?xml version="1.0" encoding="UTF-8" standalone="no"?>
<!DOCTYPE svg PUBLIC "-//W3C//DTD SVG 1.1//EN" "http://www.w3.org/Graphics/SVG/1.1/DTD/svg11.dtd">
<!-- Generated by graphviz version 2.40.1 (20161225.0304)
 -->
<!-- Title: G Pages: 1 -->
<svg width="134pt" height="188pt" viewBox="0.00 0.00 134.00 188.00" xmlns="http://www.w3.org/2000/svg" xmlns:xlink="http://www.w3.org/1999/xlink">
<g id="graph0" class="graph" transform="scale(1 1) rotate(0) translate(4 184)">
<title>G</title>
<polygon fill="#9fb6cd" stroke="transparent" points="-4,4 -4,-184 130,-184 130,4 -4,4"/>
<!-- A -->
<g id="node1" class="node">
<title>A</title>
<ellipse fill="none" stroke="#000000" cx="71" cy="-162" rx="27" ry="18"/>
<text text-anchor="middle" x="71" y="-157.8" font-family="Times,serif" font-size="14.00" fill="#000000">A</text>
</g>
<!-- B -->
<g id="node2" class="node">
<title>B</title>
<ellipse fill="none" stroke="#000000" cx="44" cy="-90" rx="27" ry="18"/>
<text text-anchor="middle" x="44" y="-85.8" font-family="Times,serif" font-size="14.00" fill="#000000">B</text>
</g>
<!-- A&#45;&gt;B -->
<g id="edge1" class="edge">
<title>A-&gt;B</title>
<path fill="none" stroke="#000000" d="M64.3258,-144.2022C61.2524,-136.0064 57.5384,-126.1024 54.1305,-117.0145"/>
<polygon fill="#000000" stroke="#000000" points="57.3858,-115.7274 50.5974,-107.593 50.8315,-118.1853 57.3858,-115.7274"/>
</g>
<!-- C -->
<g id="node3" class="node">
<title>C</title>
<ellipse fill="none" stroke="#000000" cx="27" cy="-18" rx="27" ry="18"/>
<text text-anchor="middle" x="27" y="-13.8" font-family="Times,serif" font-size="14.00" fill="#000000">C</text>
</g>
<!-- B&#45;&gt;C -->
<g id="edge2" class="edge">
<title>B-&gt;C</title>
<path fill="none" stroke="#000000" d="M39.7978,-72.2022C37.9179,-64.2406 35.6575,-54.6671 33.5629,-45.7957"/>
<polygon fill="#000000" stroke="#000000" points="36.9172,-44.7706 31.2128,-35.8425 30.1045,-46.3792 36.9172,-44.7706"/>
</g>
<!-- D -->
<g id="node4" class="node">
<title>D</title>
<ellipse fill="none" stroke="#000000" cx="99" cy="-18" rx="27" ry="18"/>
<text text-anchor="middle" x="99" y="-13.8" font-family="Times,serif" font-size="14.00" fill="#000000">D</text>
</g>
<!-- B&#45;&gt;D -->
<g id="edge3" class="edge">
<title>B-&gt;D</title>
<path fill="none" stroke="#000000" d="M56.4804,-73.6621C63.5124,-64.4564 72.4347,-52.7764 80.2883,-42.4953"/>
<polygon fill="#000000" stroke="#000000" points="83.28,-44.3446 86.569,-34.2733 77.7172,-40.0953 83.28,-44.3446"/>
</g>
<!-- D&#45;&gt;A -->
<g id="edge4" class="edge">
<title>D-&gt;A</title>
<path fill="none" stroke="#000000" d="M95.4664,-36.1727C90.6642,-60.8697 82.0329,-105.2595 76.4117,-134.1684"/>
<polygon fill="#000000" stroke="#000000" points="72.9627,-133.5692 74.4896,-144.0535 79.834,-134.9054 72.9627,-133.5692"/>
</g>
</g>
</svg>