<?xml version="1.0" encoding="UTF-8" standalone="no"?>
<!DOCTYPE svg PUBLIC "-//W3C//DTD SVG 1.1//EN" "http://www.w3.org/Graphics/SVG/1.1/DTD/svg11.dtd">
<!-- Generated by graphviz version 2.40.1 (20161225.0304)
 -->
<!-- Title: G Pages: 1 -->
<svg width="172pt" height="260pt" viewBox="0.00 0.00 172.00 260.00" xmlns="http://www.w3.org/2000/svg" xmlns:xlink="http://www.w3.org/1999/xlink">
<g id="graph0" class="graph" transform="scale(1 1) rotate(0) translate(4 256)">
<title>G</title>
<polygon fill="#9fb6cd" stroke="transparent" points="-4,4 -4,-256 168,-256 168,4 -4,4"/>
<!-- A -->
<g id="node1" class="node">
<title>A</title>
<ellipse fill="none" stroke="#000000" cx="82" cy="-234" rx="27" ry="18"/>
<text text-anchor="middle" x="82" y="-229.8" font-family="Times,serif" font-size="14.00" fill="#000000">A</text>
</g>
<!-- B -->
<g id="node2" class="node">
<title>B</title>
<ellipse fill="none" stroke="#000000" cx="82" cy="-162" rx="27" ry="18"/>
<text text-anchor="middle" x="82" y="-157.8" font-family="Times,serif" font-size="14.00" fill="#000000">B</text>
</g>
<!-- A&#45;&gt;B -->
<g id="edge1" class="edge">
<title>A-&gt;B</title>
<path fill="none" stroke="#000000" d="M82,-215.8314C82,-208.131 82,-198.9743 82,-190.4166"/>
<polygon fill="#000000" stroke="#000000" points="85.5001,-190.4132 82,-180.4133 78.5001,-190.4133 85.5001,-190.4132"/>
</g>
<!-- E -->
<g id="node5" class="node">
<title>E</title>
<ellipse fill="none" stroke="#000000" cx="137" cy="-90" rx="27" ry="18"/>
<text text-anchor="middle" x="137" y="-85.8" font-family="Times,serif" font-size="14.00" fill="#000000">E</text>
</g>
<!-- A&#45;&gt;E -->
<g id="edge5" class="edge">
<title>A-&gt;E</title>
<path fill="none" stroke="#000000" d="M95.0989,-217.9153C102.8441,-207.6387 112.2352,-193.7102 118,-180 126.3306,-160.1876 131.1533,-136.3321 133.8541,-118.1605"/>
<polygon fill="#000000" stroke="#000000" points="137.3302,-118.5721 135.2095,-108.1917 130.3941,-117.6289 137.3302,-118.5721"/>
</g>
<!-- C -->
<g id="node3" class="node">
<title>C</title>
<ellipse fill="none" stroke="#000000" cx="27" cy="-90" rx="27" ry="18"/>
<text text-anchor="middle" x="27" y="-85.8" font-family="Times,serif" font-size="14.00" fill="#000000">C</text>
</g>
<!-- B&#45;&gt;C -->
<g id="edge2" class="edge">
<title>B-&gt;C</title>
<path fill="none" stroke="#000000" d="M69.5196,-145.6621C62.4876,-136.4564 53.5653,-124.7764 45.7117,-114.4953"/>
<polygon fill="#000000" stroke="#000000" points="48.2828,-112.0953 39.431,-106.2733 42.72,-116.3446 48.2828,-112.0953"/>
</g>
<!-- D -->
<g id="node4" class="node">
<title>D</title>
<ellipse fill="none" stroke="#000000" cx="54" cy="-18" rx="27" ry="18"/>
<text text-anchor="middle" x="54" y="-13.8" font-family="Times,serif" font-size="14.00" fill="#000000">D</text>
</g>
<!-- B&#45;&gt;D -->
<g id="edge3" class="edge">
<title>B-&gt;D</title>
<path fill="none" stroke="#000000" d="M78.5104,-144.0535C73.7317,-119.4774 65.1029,-75.1008 59.4634,-46.0974"/>
<polygon fill="#000000" stroke="#000000" points="62.878,-45.3208 57.5336,-36.1727 56.0067,-46.6569 62.878,-45.3208"/>
</g>
<!-- B&#45;&gt;E -->
<g id="edge4" class="edge">
<title>B-&gt;E</title>
<path fill="none" stroke="#000000" d="M94.4804,-145.6621C101.5124,-136.4564 110.4347,-124.7764 118.2883,-114.4953"/>
<polygon fill="#000000" stroke="#000000" points="121.28,-116.3446 124.569,-106.2733 115.7172,-112.0953 121.28,-116.3446"/>
</g>
<!-- C&#45;&gt;A -->
<g id="edge6" class="edge">
<title>C-&gt;A</title>
<path fill="none" stroke="#000000" d="M28.7905,-108.1917C31.0888,-126.8125 36.0345,-156.2992 46,-180 50.3236,-190.2827 56.687,-200.6881 62.866,-209.5836"/>
<polygon fill="#000000" stroke="#000000" points="60.2002,-211.8699 68.9011,-217.9153 65.8693,-207.7635 60.2002,-211.8699"/>
</g>
<!-- C&#45;&gt;D -->
<g id="edge7" class="edge">
<title>C-&gt;D</title>
<path fill="none" stroke="#000000" d="M33.6742,-72.2022C36.7476,-64.0064 40.4616,-54.1024 43.8695,-45.0145"/>
<polygon fill="#000000" stroke="#000000" points="47.1685,-46.1853 47.4026,-35.593 40.6142,-43.7274 47.1685,-46.1853"/>
</g>
</g>
</svg>