<?xml version="1.0" encoding="UTF-8" standalone="no"?>
<!DOCTYPE svg PUBLIC "-//W3C//DTD SVG 1.1//EN" "http://www.w3.org/Graphics/SVG/1.1/DTD/svg11.dtd">
<!-- Generated by graphviz version 2.40.1 (20161225.0304)
 -->
<!-- Title: G Pages: 1 -->
<svg width="243pt" height="235pt" viewBox="0.00 0.00 243.39 234.72" xmlns="http://www.w3.org/2000/svg" xmlns:xlink="http://www.w3.org/1999/xlink">
<g id="graph0" class="graph" transform="scale(1 1) rotate(0) translate(4 230.7203)">
<title>G</title>
<polygon fill="#9fb6cd" stroke="transparent" points="-4,4 -4,-230.7203 239.3858,-230.7203 239.3858,4 -4,4"/>
<!-- 1 -->
<g id="node1" class="node">
<title>1</title>
<ellipse fill="none" stroke="#000000" cx="139.1026" cy="-18" rx="27" ry="18"/>
<text text-anchor="middle" x="139.1026" y="-13.8" font-family="Times,serif" font-size="14.00" fill="#000000">1</text>
</g>
<!-- 2 -->
<g id="node2" class="node">
<title>2</title>
<ellipse fill="none" stroke="#000000" cx="208.3858" cy="-113.3602" rx="27" ry="18"/>
<text text-anchor="middle" x="208.3858" y="-109.1602" font-family="Times,serif" font-size="14.00" fill="#000000">2</text>
</g>
<!-- 1&#45;&#45;2 -->
<g id="edge1" class="edge">
<title>1--2</title>
<path fill="none" stroke="#000000" d="M151.1708,-34.6105C163.8873,-52.1132 183.7918,-79.5095 196.4559,-96.94"/>
</g>
<!-- 3 -->
<g id="node3" class="node">
<title>3</title>
<ellipse fill="none" stroke="#000000" cx="27" cy="-172.296" rx="27" ry="18"/>
<text text-anchor="middle" x="27" y="-168.096" font-family="Times,serif" font-size="14.00" fill="#000000">3</text>
</g>
<!-- 1&#45;&#45;3 -->
<g id="edge2" class="edge">
<title>1--3</title>
<path fill="none" stroke="#000000" d="M127.3175,-34.2207C105.8435,-63.7772 60.5704,-126.0903 38.9646,-155.8282"/>
</g>
<!-- 4 -->
<g id="node4" class="node">
<title>4</title>
<ellipse fill="none" stroke="#000000" cx="139.1026" cy="-208.7203" rx="27" ry="18"/>
<text text-anchor="middle" x="139.1026" y="-204.5203" font-family="Times,serif" font-size="14.00" fill="#000000">4</text>
</g>
<!-- 1&#45;&#45;4 -->
<g id="edge3" class="edge">
<title>1--4</title>
<path fill="none" stroke="#000000" d="M139.1026,-36.2871C139.1026,-72.7415 139.1026,-154.0797 139.1026,-190.4886"/>
</g>
<!-- 5 -->
<g id="node5" class="node">
<title>5</title>
<ellipse fill="none" stroke="#000000" cx="27" cy="-54.4243" rx="27" ry="18"/>
<text text-anchor="middle" x="27" y="-50.2243" font-family="Times,serif" font-size="14.00" fill="#000000">5</text>
</g>
<!-- 1&#45;&#45;5 -->
<g id="edge4" class="edge">
<title>1--5</title>
<path fill="none" stroke="#000000" d="M114.778,-25.9035C95.9746,-32.0131 70.0685,-40.4305 51.2771,-46.5362"/>
</g>
<!-- 2&#45;&#45;3 -->
<g id="edge5" class="edge">
<title>2--3</title>
<path fill="none" stroke="#000000" d="M183.9233,-121.3085C149.2079,-132.5882 86.0253,-153.1175 51.3639,-164.3797"/>
</g>
<!-- 2&#45;&#45;4 -->
<g id="edge6" class="edge">
<title>2--4</title>
<path fill="none" stroke="#000000" d="M196.3176,-129.9706C183.6011,-147.4734 163.6966,-174.8696 151.0325,-192.3002"/>
</g>
<!-- 2&#45;&#45;5 -->
<g id="edge7" class="edge">
<title>2--5</title>
<path fill="none" stroke="#000000" d="M183.9233,-105.4118C149.2079,-94.1321 86.0253,-73.6028 51.3639,-62.3407"/>
</g>
<!-- 3&#45;&#45;4 -->
<g id="edge8" class="edge">
<title>3--4</title>
<path fill="none" stroke="#000000" d="M51.3246,-180.1995C70.128,-186.3091 96.0341,-194.7265 114.8255,-200.8322"/>
</g>
<!-- 3&#45;&#45;5 -->
<g id="edge9" class="edge">
<title>3--5</title>
<path fill="none" stroke="#000000" d="M27,-154.1369C27,-132.0512 27,-94.9806 27,-72.7983"/>
</g>
<!-- 4&#45;&#45;5 -->
<g id="edge10" class="edge">
<title>4--5</title>
<path fill="none" stroke="#000000" d="M127.3175,-192.4996C105.8435,-162.9432 60.5704,-100.6301 38.9646,-70.8922"/>
</g>
</g>
</svg>