<?xml version="1.0" encoding="UTF-8" standalone="no"?>
<!DOCTYPE svg PUBLIC "-//W3C//DTD SVG 1.1//EN" "http://www.w3.org/Graphics/SVG/1.1/DTD/svg11.dtd">
<!-- Generated by graphviz version 2.40.1 (20161225.0304)
 -->
<!-- Title: G Pages: 1 -->
<svg width="225pt" height="260pt" viewBox="0.00 0.00 225.00 260.00" xmlns="http://www.w3.org/2000/svg" xmlns:xlink="http://www.w3.org/1999/xlink">
<g id="graph0" class="graph" transform="scale(1 1) rotate(0) translate(4 256)">
<title>G</title>
<polygon fill="#9fb6cd" stroke="transparent" points="-4,4 -4,-256 221,-256 221,4 -4,4"/>
<!-- 0 -->
<g id="node1" class="node">
<title>0</title>
<ellipse fill="none" stroke="#000000" cx="90" cy="-234" rx="27" ry="18"/>
<text text-anchor="middle" x="90" y="-229.8" font-family="Times,serif" font-size="14.00" fill="#000000">0</text>
</g>
<!-- 1 -->
<g id="node2" class="node">
<title>1</title>
<ellipse fill="none" stroke="#000000" cx="44" cy="-162" rx="27" ry="18"/>
<text text-anchor="middle" x="44" y="-157.8" font-family="Times,serif" font-size="14.00" fill="#000000">1</text>
</g>
<!-- 0&#45;&#45;1 -->
<g id="edge1" class="edge">
<title>0--1</title>
<path fill="none" stroke="#000000" d="M79.3311,-217.3008C71.8996,-205.669 62.0298,-190.2206 54.6111,-178.6087"/>
</g>
<!-- 2 -->
<g id="node3" class="node">
<title>2</title>
<ellipse fill="none" stroke="#000000" cx="44" cy="-90" rx="27" ry="18"/>
<text text-anchor="middle" x="44" y="-85.8" font-family="Times,serif" font-size="14.00" fill="#000000">2</text>
</g>
<!-- 1&#45;&#45;2 -->
<g id="edge2" class="edge">
<title>1--2</title>
<path fill="none" stroke="#000000" d="M44,-143.8314C44,-133 44,-119.2876 44,-108.4133"/>
</g>
<!-- 3 -->
<g id="node4" class="node">
<title>3</title>
<ellipse fill="none" stroke="#000000" cx="27" cy="-18" rx="27" ry="18"/>
<text text-anchor="middle" x="27" y="-13.8" font-family="Times,serif" font-size="14.00" fill="#000000">3</text>
</g>
<!-- 2&#45;&#45;3 -->
<g id="edge3" class="edge">
<title>2--3</title>
<path fill="none" stroke="#000000" d="M39.7978,-72.2022C37.1823,-61.1252 33.8302,-46.928 31.2128,-35.8425"/>
</g>
<!-- 4 -->
<g id="node5" class="node">
<title>4</title>
<ellipse fill="none" stroke="#000000" cx="99" cy="-18" rx="27" ry="18"/>
<text text-anchor="middle" x="99" y="-13.8" font-family="Times,serif" font-size="14.00" fill="#000000">4</text>
</g>
<!-- 2&#45;&#45;4 -->
<g id="edge4" class="edge">
<title>2--4</title>
<path fill="none" stroke="#000000" d="M56.4804,-73.6621C65.4814,-61.8788 77.5793,-46.0416 86.569,-34.2733"/>
</g>
<!-- 4&#45;&#45;0 -->
<g id="edge5" class="edge">
<title>4--0</title>
<path fill="none" stroke="#000000" d="M98.244,-36.1451C96.5459,-76.8988 92.446,-175.2967 90.7519,-215.9555"/>
</g>
<!-- 5 -->
<g id="node6" class="node">
<title>5</title>
<ellipse fill="none" stroke="#000000" cx="181" cy="-234" rx="27" ry="18"/>
<text text-anchor="middle" x="181" y="-229.8" font-family="Times,serif" font-size="14.00" fill="#000000">5</text>
</g>
<!-- 6 -->
<g id="node7" class="node">
<title>6</title>
<ellipse fill="none" stroke="#000000" cx="181" cy="-162" rx="27" ry="18"/>
<text text-anchor="middle" x="181" y="-157.8" font-family="Times,serif" font-size="14.00" fill="#000000">6</text>
</g>
<!-- 5&#45;&#45;6 -->
<g id="edge6" class="edge">
<title>5--6</title>
<path fill="none" stroke="#000000" d="M181,-215.8314C181,-205 181,-191.2876 181,-180.4133"/>
</g>
<!-- 7 -->
<g id="node8" class="node">
<title>7</title>
<ellipse fill="none" stroke="#000000" cx="172" cy="-90" rx="27" ry="18"/>
<text text-anchor="middle" x="172" y="-85.8" font-family="Times,serif" font-size="14.00" fill="#000000">7</text>
</g>
<!-- 6&#45;&#45;7 -->
<g id="edge7" class="edge">
<title>6--7</title>
<path fill="none" stroke="#000000" d="M178.7289,-143.8314C177.375,-133 175.6609,-119.2876 174.3017,-108.4133"/>
</g>
<!-- 8 -->
<g id="node9" class="node">
<title>8</title>
<ellipse fill="none" stroke="#000000" cx="190" cy="-18" rx="27" ry="18"/>
<text text-anchor="middle" x="190" y="-13.8" font-family="Times,serif" font-size="14.00" fill="#000000">8</text>
</g>
<!-- 7&#45;&#45;8 -->
<g id="edge8" class="edge">
<title>7--8</title>
<path fill="none" stroke="#000000" d="M176.4494,-72.2022C179.2187,-61.1252 182.768,-46.928 185.5394,-35.8425"/>
</g>
<!-- 8&#45;&#45;6 -->
<g id="edge9" class="edge">
<title>8--6</title>
<path fill="none" stroke="#000000" d="M197.8973,-35.3302C205.1473,-53.5095 213.9308,-82.8768 208,-108 204.8694,-121.2615 197.9557,-134.9795 191.9085,-145.2705"/>
</g>
</g>
</svg>