<?xml version="1.0" encoding="UTF-8" standalone="no"?>
<!DOCTYPE svg PUBLIC "-//W3C//DTD SVG 1.1//EN"
 "http://www.w3.org/Graphics/SVG/1.1/DTD/svg11.dtd">
<!-- Generated by graphviz version 2.47.0 (20210316.0004)
 -->
<!-- Pages: 1 -->
<svg width="152pt" height="218pt"
 viewBox="0.00 0.00 152.00 218.00" xmlns="http://www.w3.org/2000/svg" xmlns:xlink="http://www.w3.org/1999/xlink">
<g id="graph0" class="graph" transform="scale(1 1) rotate(0) translate(4 214)">
<polygon fill="#9fb6cd" stroke="transparent" points="-4,4 -4,-214 148,-214 148,4 -4,4"/>
<!-- A -->
<g id="node1" class="node">
<title>A</title>
<ellipse fill="none" stroke="black" cx="27" cy="-105" rx="27" ry="18"/>
<text text-anchor="middle" x="27" y="-101.3" font-family="Times New Roman,serif" font-size="14.00">A</text>
</g>
<!-- B -->
<g id="node2" class="node">
<title>B</title>
<ellipse fill="none" stroke="black" cx="57" cy="-18" rx="27" ry="18"/>
<text text-anchor="middle" x="57" y="-14.3" font-family="Times New Roman,serif" font-size="14.00">B</text>
</g>
<!-- A&#45;&#45;B -->
<g id="edge1" class="edge">
<title>A&#45;&#45;B</title>
<path fill="none" stroke="black" d="M25.57,-86.82C25.34,-76.92 26.09,-64.42 30,-54 32.8,-46.53 37.78,-39.35 42.71,-33.46"/>
<text text-anchor="middle" x="33.5" y="-57.8" font-family="Times New Roman,serif" font-size="14.00">a</text>
</g>
<!-- A&#45;&#45;B -->
<g id="edge2" class="edge">
<title>A&#45;&#45;B</title>
<path fill="none" stroke="black" d="M32.93,-87.21C38.19,-72.31 45.83,-50.65 51.09,-35.76"/>
<text text-anchor="middle" x="48" y="-57.8" font-family="Times New Roman,serif" font-size="14.00">b</text>
</g>
<!-- C -->
<g id="node3" class="node">
<title>C</title>
<ellipse fill="none" stroke="black" cx="57" cy="-192" rx="27" ry="18"/>
<text text-anchor="middle" x="57" y="-188.3" font-family="Times New Roman,serif" font-size="14.00">C</text>
</g>
<!-- A&#45;&#45;C -->
<g id="edge3" class="edge">
<title>A&#45;&#45;C</title>
<path fill="none" stroke="black" d="M25.57,-123.18C25.34,-133.08 26.09,-145.58 30,-156 32.8,-163.47 37.78,-170.65 42.71,-176.54"/>
<text text-anchor="middle" x="33.5" y="-144.8" font-family="Times New Roman,serif" font-size="14.00">c</text>
</g>
<!-- A&#45;&#45;C -->
<g id="edge4" class="edge">
<title>A&#45;&#45;C</title>
<path fill="none" stroke="black" d="M32.91,-122.76C38.17,-137.65 45.81,-159.31 51.07,-174.21"/>
<text text-anchor="middle" x="48" y="-144.8" font-family="Times New Roman,serif" font-size="14.00">d</text>
</g>
<!-- D -->
<g id="node4" class="node">
<title>D</title>
<ellipse fill="none" stroke="black" cx="117" cy="-105" rx="27" ry="18"/>
<text text-anchor="middle" x="117" y="-101.3" font-family="Times New Roman,serif" font-size="14.00">D</text>
</g>
<!-- A&#45;&#45;D -->
<g id="edge5" class="edge">
<title>A&#45;&#45;D</title>
<path fill="none" stroke="black" d="M54,-105C65.29,-105 78.39,-105 89.71,-105"/>
<text text-anchor="middle" x="72" y="-111.8" font-family="Times New Roman,serif" font-size="14.00">e</text>
</g>
<!-- D&#45;&#45;B -->
<g id="edge7" class="edge">
<title>D&#45;&#45;B</title>
<path fill="none" stroke="black" d="M106,-88.41C95.17,-73.07 78.74,-49.79 67.94,-34.49"/>
<text text-anchor="middle" x="92.5" y="-57.8" font-family="Times New Roman,serif" font-size="14.00">f</text>
</g>
<!-- D&#45;&#45;C -->
<g id="edge6" class="edge">
<title>D&#45;&#45;C</title>
<path fill="none" stroke="black" d="M106.06,-121.49C95.26,-136.79 78.83,-160.07 68,-175.41"/>
<text text-anchor="middle" x="93.5" y="-144.8" font-family="Times New Roman,serif" font-size="14.00">g</text>
</g>
</g>
</svg>
