<?xml version="1.0" encoding="UTF-8" standalone="no"?>
<!DOCTYPE svg PUBLIC "-//W3C//DTD SVG 1.1//EN"
 "http://www.w3.org/Graphics/SVG/1.1/DTD/svg11.dtd">
<!-- Generated by graphviz version 2.47.0 (20210316.0004)
 -->
<!-- Pages: 1 -->
<svg width="222pt" height="204pt"
 viewBox="0.00 0.00 222.43 204.43" xmlns="http://www.w3.org/2000/svg" xmlns:xlink="http://www.w3.org/1999/xlink">
<g id="graph0" class="graph" transform="scale(1 1) rotate(0) translate(4 200.43)">
<polygon fill="#9fb6cd" stroke="transparent" points="-4,4 -4,-200.43 218.43,-200.43 218.43,4 -4,4"/>
<!-- A -->
<g id="node1" class="node">
<title>A</title>
<ellipse fill="none" stroke="black" cx="107.21" cy="-18" rx="27" ry="18"/>
<text text-anchor="middle" x="107.21" y="-14.3" font-family="Times New Roman,serif" font-size="14.00">A</text>
</g>
<!-- B -->
<g id="node2" class="node">
<title>B</title>
<ellipse fill="none" stroke="black" cx="27" cy="-98.21" rx="27" ry="18"/>
<text text-anchor="middle" x="27" y="-94.51" font-family="Times New Roman,serif" font-size="14.00">B</text>
</g>
<!-- A&#45;&#45;B -->
<g id="edge1" class="edge">
<title>A&#45;&#45;B</title>
<path fill="none" stroke="black" d="M87.06,-30.31C70.92,-44.02 49.15,-65.96 36.63,-81.27"/>
<text text-anchor="middle" x="58.34" y="-59.59" font-family="Times New Roman,serif" font-size="14.00">a</text>
</g>
<!-- A&#45;&#45;B -->
<g id="edge2" class="edge">
<title>A&#45;&#45;B</title>
<path fill="none" stroke="black" d="M97.62,-34.9C85.13,-50.18 63.39,-72.1 47.25,-85.83"/>
<text text-anchor="middle" x="68.43" y="-64.16" font-family="Times New Roman,serif" font-size="14.00">b</text>
</g>
<!-- C -->
<g id="node3" class="node">
<title>C</title>
<ellipse fill="none" stroke="black" cx="187.43" cy="-98.21" rx="27" ry="18"/>
<text text-anchor="middle" x="187.43" y="-94.51" font-family="Times New Roman,serif" font-size="14.00">C</text>
</g>
<!-- A&#45;&#45;C -->
<g id="edge3" class="edge">
<title>A&#45;&#45;C</title>
<path fill="none" stroke="black" d="M116.81,-34.9C129.3,-50.18 151.03,-72.1 167.18,-85.83"/>
<text text-anchor="middle" x="138.49" y="-64.16" font-family="Times New Roman,serif" font-size="14.00">c</text>
</g>
<!-- A&#45;&#45;C -->
<g id="edge4" class="edge">
<title>A&#45;&#45;C</title>
<path fill="none" stroke="black" d="M127.37,-30.31C143.51,-44.02 165.28,-65.96 177.8,-81.27"/>
<text text-anchor="middle" x="148.58" y="-59.59" font-family="Times New Roman,serif" font-size="14.00">d</text>
</g>
<!-- D -->
<g id="node4" class="node">
<title>D</title>
<ellipse fill="none" stroke="black" cx="107.21" cy="-178.43" rx="27" ry="18"/>
<text text-anchor="middle" x="107.21" y="-174.73" font-family="Times New Roman,serif" font-size="14.00">D</text>
</g>
<!-- A&#45;&#45;D -->
<g id="edge5" class="edge">
<title>A&#45;&#45;D</title>
<path fill="none" stroke="black" d="M107.21,-36.09C107.21,-66.9 107.21,-129.22 107.21,-160.16"/>
<text text-anchor="middle" x="103.71" y="-101.92" font-family="Times New Roman,serif" font-size="14.00">e</text>
</g>
<!-- D&#45;&#45;B -->
<g id="edge7" class="edge">
<title>D&#45;&#45;B</title>
<path fill="none" stroke="black" d="M92.13,-163.34C77.79,-149 56.34,-127.55 42.02,-113.23"/>
<text text-anchor="middle" x="64.57" y="-142.09" font-family="Times New Roman,serif" font-size="14.00">f</text>
</g>
<!-- D&#45;&#45;C -->
<g id="edge6" class="edge">
<title>D&#45;&#45;C</title>
<path fill="none" stroke="black" d="M122.3,-163.34C136.64,-149 158.09,-127.55 172.41,-113.23"/>
<text text-anchor="middle" x="143.85" y="-142.09" font-family="Times New Roman,serif" font-size="14.00">g</text>
</g>
</g>
</svg>
