<?xml version="1.0" encoding="UTF-8" standalone="no"?>
<!DOCTYPE svg PUBLIC "-//W3C//DTD SVG 1.1//EN"
 "http://www.w3.org/Graphics/SVG/1.1/DTD/svg11.dtd">
<!-- Generated by graphviz version 2.47.0 (20210316.0004)
 -->
<!-- Pages: 1 -->
<svg width="159pt" height="131pt"
 viewBox="0.00 0.00 158.90 130.91" xmlns="http://www.w3.org/2000/svg" xmlns:xlink="http://www.w3.org/1999/xlink">
<g id="graph0" class="graph" transform="scale(1 1) rotate(0) translate(4 126.91)">
<polygon fill="#9fb6cd" stroke="transparent" points="-4,4 -4,-126.91 154.9,-126.91 154.9,4 -4,4"/>
<!-- A -->
<g id="node1" class="node">
<title>A</title>
<ellipse fill="none" stroke="black" cx="51.96" cy="-35.27" rx="27" ry="18"/>
<text text-anchor="middle" x="51.96" y="-31.57" font-family="Times New Roman,serif" font-size="14.00">A</text>
</g>
<!-- B -->
<g id="node2" class="node">
<title>B</title>
<ellipse fill="none" stroke="black" cx="27" cy="-104.91" rx="27" ry="18"/>
<text text-anchor="middle" x="27" y="-101.21" font-family="Times New Roman,serif" font-size="14.00">B</text>
</g>
<!-- A&#45;&#45;B -->
<g id="edge1" class="edge">
<title>A&#45;&#45;B</title>
<path fill="none" stroke="black" d="M39.73,-51.53C34.9,-61.99 30.09,-75.57 27.42,-86.43"/>
<text text-anchor="middle" x="30.08" y="-72.78" font-family="Times New Roman,serif" font-size="14.00">a</text>
</g>
<!-- A&#45;&#45;B -->
<g id="edge2" class="edge">
<title>A&#45;&#45;B</title>
<path fill="none" stroke="black" d="M51.63,-53.38C49,-64.22 44.19,-77.88 39.33,-88.42"/>
<text text-anchor="middle" x="41.48" y="-74.7" font-family="Times New Roman,serif" font-size="14.00">b</text>
</g>
<!-- C -->
<g id="node3" class="node">
<title>C</title>
<ellipse fill="none" stroke="black" cx="123.9" cy="-18" rx="27" ry="18"/>
<text text-anchor="middle" x="123.9" y="-14.3" font-family="Times New Roman,serif" font-size="14.00">C</text>
</g>
<!-- A&#45;&#45;C -->
<g id="edge3" class="edge">
<title>A&#45;&#45;C</title>
<path fill="none" stroke="black" d="M79.04,-35.44C86.89,-33.97 95.33,-31.88 102.76,-29.57"/>
<text text-anchor="middle" x="87.4" y="-36.31" font-family="Times New Roman,serif" font-size="14.00">c</text>
</g>
<!-- A&#45;&#45;C -->
<g id="edge4" class="edge">
<title>A&#45;&#45;C</title>
<path fill="none" stroke="black" d="M72.86,-23.77C80.32,-21.44 88.84,-19.33 96.76,-17.83"/>
<text text-anchor="middle" x="88.81" y="-9.6" font-family="Times New Roman,serif" font-size="14.00">d</text>
</g>
<!-- D -->
<g id="node4" class="node">
<title>D</title>
<ellipse fill="none" stroke="black" cx="98.83" cy="-87.52" rx="27" ry="18"/>
<text text-anchor="middle" x="98.83" y="-83.82" font-family="Times New Roman,serif" font-size="14.00">D</text>
</g>
<!-- A&#45;&#45;D -->
<g id="edge5" class="edge">
<title>A&#45;&#45;D</title>
<path fill="none" stroke="black" d="M66.02,-50.95C71.96,-57.56 78.85,-65.24 84.78,-71.85"/>
<text text-anchor="middle" x="78.9" y="-50.2" font-family="Times New Roman,serif" font-size="14.00">e</text>
</g>
<!-- D&#45;&#45;B -->
<g id="edge7" class="edge">
<title>D&#45;&#45;B</title>
<path fill="none" stroke="black" d="M73.3,-93.7C66.53,-95.34 59.21,-97.11 52.44,-98.75"/>
<text text-anchor="middle" x="60.37" y="-100.02" font-family="Times New Roman,serif" font-size="14.00">f</text>
</g>
<!-- D&#45;&#45;C -->
<g id="edge6" class="edge">
<title>D&#45;&#45;C</title>
<path fill="none" stroke="black" d="M105.15,-69.98C108.93,-59.52 113.7,-46.28 117.49,-35.78"/>
<text text-anchor="middle" x="107.82" y="-56.68" font-family="Times New Roman,serif" font-size="14.00">g</text>
</g>
</g>
</svg>
