<?xml version="1.0" encoding="UTF-8" standalone="no"?>
<!DOCTYPE svg PUBLIC "-//W3C//DTD SVG 1.1//EN" "http://www.w3.org/Graphics/SVG/1.1/DTD/svg11.dtd">
<!-- Generated by graphviz version 2.40.1 (20161225.0304)
 -->
<!-- Title: G Pages: 1 -->
<svg width="346pt" height="296pt" viewBox="0.00 0.00 346.00 296.00" xmlns="http://www.w3.org/2000/svg" xmlns:xlink="http://www.w3.org/1999/xlink">
<g id="graph0" class="graph" transform="scale(1 1) rotate(0) translate(4 292)">
<title>G</title>
<polygon fill="#9fb6cd" stroke="transparent" points="-4,4 -4,-292 342,-292 342,4 -4,4"/>
<!-- 0 -->
<g id="node1" class="node">
<title>0</title>
<ellipse fill="none" stroke="#000000" cx="27" cy="-144" rx="27" ry="18"/>
<text text-anchor="middle" x="27" y="-139.8" font-family="Times,serif" font-size="14.00" fill="#000000">0</text>
</g>
<!-- 1 -->
<g id="node2" class="node">
<title>1</title>
<ellipse fill="none" stroke="#000000" cx="279" cy="-144" rx="27" ry="18"/>
<text text-anchor="middle" x="279" y="-139.8" font-family="Times,serif" font-size="14.00" fill="#000000">1</text>
</g>
<!-- 0&#45;&gt;1 -->
<g id="edge1" class="edge">
<title>0-&gt;1</title>
<path fill="none" stroke="#000000" d="M53.4921,-148.3389C98.7713,-151.346 191.1209,-151.5403 242.4818,-148.9217"/>
<polygon fill="#000000" stroke="#000000" points="242.7046,-152.4148 252.4847,-148.3405 242.2985,-145.4266 242.7046,-152.4148"/>
<text text-anchor="middle" x="140.987" y="-152.8303" font-family="Times,serif" font-size="14.00" fill="#000000">12</text>
</g>
<!-- 1&#45;&gt;0 -->
<g id="edge2" class="edge">
<title>1-&gt;0</title>
<path fill="none" stroke="#000000" d="M252.5079,-139.6611C207.2287,-136.654 114.8791,-136.4597 63.5182,-139.0783"/>
<polygon fill="#000000" stroke="#000000" points="63.2954,-135.5852 53.5153,-139.6595 63.7015,-142.5734 63.2954,-135.5852"/>
<text text-anchor="middle" x="151.013" y="-126.7697" font-family="Times,serif" font-size="14.00" fill="#000000">12</text>
</g>
<!-- 2 -->
<g id="node3" class="node">
<title>2</title>
<ellipse fill="none" stroke="#000000" cx="279" cy="-18" rx="27" ry="18"/>
<text text-anchor="middle" x="279" y="-13.8" font-family="Times,serif" font-size="14.00" fill="#000000">2</text>
</g>
<!-- 1&#45;&gt;2 -->
<g id="edge3" class="edge">
<title>1-&gt;2</title>
<path fill="none" stroke="#000000" d="M279,-125.9473C279,-105.0823 279,-70.4928 279,-46.1006"/>
<polygon fill="#000000" stroke="#000000" points="282.5001,-46.0192 279,-36.0192 275.5001,-46.0193 282.5001,-46.0192"/>
<text text-anchor="middle" x="275.5" y="-90.2239" font-family="Times,serif" font-size="14.00" fill="#000000">5</text>
</g>
<!-- 3 -->
<g id="node4" class="node">
<title>3</title>
<ellipse fill="none" stroke="#000000" cx="279" cy="-270" rx="27" ry="18"/>
<text text-anchor="middle" x="279" y="-265.8" font-family="Times,serif" font-size="14.00" fill="#000000">3</text>
</g>
<!-- 1&#45;&gt;3 -->
<g id="edge6" class="edge">
<title>1-&gt;3</title>
<path fill="none" stroke="#000000" d="M274.1271,-161.7855C271.9565,-182.5857 271.6684,-217.2839 273.2628,-241.7736"/>
<polygon fill="#000000" stroke="#000000" points="269.7873,-242.2171 274.0942,-251.897 276.7638,-241.644 269.7873,-242.2171"/>
<text text-anchor="middle" x="266.6949" y="-205.9796" font-family="Times,serif" font-size="14.00" fill="#000000">24</text>
</g>
<!-- 2&#45;&gt;2 -->
<g id="edge4" class="edge">
<title>2-&gt;2</title>
<path fill="none" stroke="#000000" d="M304.4435,-24.6907C315.0278,-25.1521 324,-22.9219 324,-18 324,-14.77 320.136,-12.6992 314.4881,-11.7876"/>
<polygon fill="#000000" stroke="#000000" points="314.5987,-8.289 304.4435,-11.3093 314.2656,-15.2811 314.5987,-8.289"/>
<text text-anchor="middle" x="331" y="-13.8" font-family="Times,serif" font-size="14.00" fill="#000000">20</text>
</g>
<!-- 3&#45;&gt;1 -->
<g id="edge5" class="edge">
<title>3-&gt;1</title>
<path fill="none" stroke="#000000" d="M283.8729,-252.2145C286.0435,-231.4143 286.3316,-196.7161 284.7372,-172.2264"/>
<polygon fill="#000000" stroke="#000000" points="288.2127,-171.7829 283.9058,-162.103 281.2362,-172.356 288.2127,-171.7829"/>
<text text-anchor="middle" x="291.3051" y="-216.4204" font-family="Times,serif" font-size="14.00" fill="#000000">42</text>
</g>
</g>
</svg>