<?xml version="1.0" encoding="UTF-8" standalone="no"?>
<!DOCTYPE svg PUBLIC "-//W3C//DTD SVG 1.1//EN" "http://www.w3.org/Graphics/SVG/1.1/DTD/svg11.dtd">
<!-- Generated by graphviz version 2.40.1 (20161225.0304)
 -->
<!-- Title: G Pages: 1 -->
<svg width="139pt" height="310pt" viewBox="0.00 0.00 139.00 310.40" xmlns="http://www.w3.org/2000/svg" xmlns:xlink="http://www.w3.org/1999/xlink">
<g id="graph0" class="graph" transform="scale(1 1) rotate(0) translate(4 306.4)">
<title>G</title>
<polygon fill="#9fb6cd" stroke="transparent" points="-4,4 -4,-306.4 135,-306.4 135,4 -4,4"/>
<!-- A -->
<g id="node1" class="node">
<title>A</title>
<ellipse fill="none" stroke="#000000" cx="90" cy="-284.4" rx="27" ry="18"/>
<text text-anchor="middle" x="90" y="-280.2" font-family="Times,serif" font-size="14.00" fill="#000000">A</text>
</g>
<!-- B -->
<g id="node2" class="node">
<title>B</title>
<ellipse fill="none" stroke="#000000" cx="27" cy="-195.6" rx="27" ry="18"/>
<text text-anchor="middle" x="27" y="-191.4" font-family="Times,serif" font-size="14.00" fill="#000000">B</text>
</g>
<!-- A&#45;&gt;B -->
<g id="edge1" class="edge">
<title>A-&gt;B</title>
<path fill="none" stroke="#000000" d="M77.1916,-268.4687C72.3283,-262.2817 66.8061,-255.0866 62,-248.4 55.7116,-239.6511 49.1104,-229.8658 43.3568,-221.1186"/>
<polygon fill="#000000" stroke="#000000" points="46.1093,-218.9318 37.7163,-212.4659 40.2452,-222.7545 46.1093,-218.9318"/>
<text text-anchor="middle" x="69" y="-235.8" font-family="Times,serif" font-size="14.00" fill="#000000">10</text>
</g>
<!-- C -->
<g id="node3" class="node">
<title>C</title>
<ellipse fill="none" stroke="#000000" cx="77" cy="-106.8" rx="27" ry="18"/>
<text text-anchor="middle" x="77" y="-102.6" font-family="Times,serif" font-size="14.00" fill="#000000">C</text>
</g>
<!-- B&#45;&gt;C -->
<g id="edge2" class="edge">
<title>B-&gt;C</title>
<path fill="none" stroke="#000000" d="M36.6405,-178.4785C43.9034,-165.5795 53.9902,-147.6655 62.2627,-132.9734"/>
<polygon fill="#000000" stroke="#000000" points="65.5325,-134.2999 67.3891,-123.869 59.4329,-130.8654 65.5325,-134.2999"/>
<text text-anchor="middle" x="64" y="-147" font-family="Times,serif" font-size="14.00" fill="#000000">20</text>
</g>
<!-- C&#45;&gt;A -->
<g id="edge5" class="edge">
<title>C-&gt;A</title>
<path fill="none" stroke="#000000" d="M78.3215,-124.8543C80.5918,-155.8691 85.2478,-219.4781 87.9447,-256.322"/>
<polygon fill="#000000" stroke="#000000" points="84.4612,-256.6756 88.6819,-266.3934 91.4425,-256.1645 84.4612,-256.6756"/>
<text text-anchor="middle" x="91" y="-191.4" font-family="Times,serif" font-size="14.00" fill="#000000">40</text>
</g>
<!-- D -->
<g id="node4" class="node">
<title>D</title>
<ellipse fill="none" stroke="#000000" cx="104" cy="-18" rx="27" ry="18"/>
<text text-anchor="middle" x="104" y="-13.8" font-family="Times,serif" font-size="14.00" fill="#000000">D</text>
</g>
<!-- C&#45;&gt;D -->
<g id="edge3" class="edge">
<title>C-&gt;D</title>
<path fill="none" stroke="#000000" d="M82.4639,-88.83C86.2333,-76.4327 91.317,-59.713 95.5986,-45.6312"/>
<polygon fill="#000000" stroke="#000000" points="98.9838,-46.529 98.5443,-35.9433 92.2865,-44.4926 98.9838,-46.529"/>
<text text-anchor="middle" x="99" y="-58.2" font-family="Times,serif" font-size="14.00" fill="#000000">30</text>
</g>
<!-- D&#45;&gt;A -->
<g id="edge4" class="edge">
<title>D-&gt;A</title>
<path fill="none" stroke="#000000" d="M107.2711,-35.9042C108.247,-41.6675 109.2541,-48.0909 110,-54 111.9443,-69.4018 112.3327,-73.2903 113,-88.8 116.0591,-159.9025 113.2919,-178.484 100,-248.4 99.484,-251.1143 98.8628,-253.9219 98.1859,-256.7168"/>
<polygon fill="#000000" stroke="#000000" points="94.7471,-256.0308 95.5772,-266.5931 101.515,-257.8185 94.7471,-256.0308"/>
<text text-anchor="middle" x="117.5" y="-147" font-family="Times,serif" font-size="14.00" fill="#000000">5</text>
</g>
</g>
</svg>