<?xml version="1.0" encoding="UTF-8" standalone="no"?>
<!DOCTYPE svg PUBLIC "-//W3C//DTD SVG 1.1//EN" "http://www.w3.org/Graphics/SVG/1.1/DTD/svg11.dtd">
<!-- Generated by graphviz version 2.40.1 (20161225.0304)
 -->
<!-- Title: G Pages: 1 -->
<svg width="222pt" height="204pt" viewBox="0.00 0.00 222.43 204.43" xmlns="http://www.w3.org/2000/svg" xmlns:xlink="http://www.w3.org/1999/xlink">
<g id="graph0" class="graph" transform="scale(1 1) rotate(0) translate(4 200.4282)">
<title>G</title>
<polygon fill="#9fb6cd" stroke="transparent" points="-4,4 -4,-200.4282 218.4282,-200.4282 218.4282,4 -4,4"/>
<!-- 0 -->
<g id="node1" class="node">
<title>0</title>
<ellipse fill="none" stroke="#000000" cx="107.2141" cy="-18" rx="27" ry="18"/>
<text text-anchor="middle" x="107.2141" y="-13.8" font-family="Times,serif" font-size="14.00" fill="#000000">0</text>
</g>
<!-- 1 -->
<g id="node2" class="node">
<title>1</title>
<ellipse fill="none" stroke="#000000" cx="187.4282" cy="-98.2141" rx="27" ry="18"/>
<text text-anchor="middle" x="187.4282" y="-94.0141" font-family="Times,serif" font-size="14.00" fill="#000000">1</text>
</g>
<!-- 0&#45;&#45;1 -->
<g id="edge1" class="edge">
<title>0--1</title>
<path fill="none" stroke="#000000" d="M122.3017,-33.0877C136.6428,-47.4287 158.0896,-68.8755 172.4082,-83.1941"/>
</g>
<!-- 3 -->
<g id="node4" class="node">
<title>3</title>
<ellipse fill="none" stroke="#000000" cx="27" cy="-98.2141" rx="27" ry="18"/>
<text text-anchor="middle" x="27" y="-94.0141" font-family="Times,serif" font-size="14.00" fill="#000000">3</text>
</g>
<!-- 0&#45;&#45;3 -->
<g id="edge5" class="edge">
<title>0--3</title>
<path fill="none" stroke="#000000" d="M92.1264,-33.0877C77.7854,-47.4287 56.3386,-68.8755 42.02,-83.1941"/>
</g>
<!-- 2 -->
<g id="node3" class="node">
<title>2</title>
<ellipse fill="none" stroke="#000000" cx="107.2141" cy="-178.4282" rx="27" ry="18"/>
<text text-anchor="middle" x="107.2141" y="-174.2282" font-family="Times,serif" font-size="14.00" fill="#000000">2</text>
</g>
<!-- 1&#45;&#45;2 -->
<g id="edge2" class="edge">
<title>1--2</title>
<path fill="none" stroke="#000000" d="M172.3405,-113.3017C157.9995,-127.6428 136.5527,-149.0896 122.2341,-163.4082"/>
</g>
<!-- 1&#45;&#45;3 -->
<g id="edge6" class="edge">
<title>1--3</title>
<path fill="none" stroke="#000000" d="M160.2137,-98.2141C130.6236,-98.2141 83.6169,-98.2141 54.0798,-98.2141"/>
</g>
<!-- 2&#45;&#45;0 -->
<g id="edge4" class="edge">
<title>2--0</title>
<path fill="none" stroke="#000000" d="M107.2141,-160.3369C107.2141,-129.5254 107.2141,-67.2051 107.2141,-36.2713"/>
</g>
<!-- 2&#45;&#45;3 -->
<g id="edge3" class="edge">
<title>2--3</title>
<path fill="none" stroke="#000000" d="M92.1264,-163.3405C77.7854,-148.9995 56.3386,-127.5527 42.02,-113.2341"/>
</g>
</g>
</svg>