<?xml version="1.0" encoding="UTF-8" standalone="no"?>
<!DOCTYPE svg PUBLIC "-//W3C//DTD SVG 1.1//EN"
 "http://www.w3.org/Graphics/SVG/1.1/DTD/svg11.dtd">
<!-- Generated by graphviz version 2.47.0 (20210316.0004)
 -->
<!-- Pages: 1 -->
<svg width="170pt" height="169pt"
 viewBox="0.00 0.00 170.00 168.71" xmlns="http://www.w3.org/2000/svg" xmlns:xlink="http://www.w3.org/1999/xlink">
<g id="graph0" class="graph" transform="scale(1 1) rotate(0) translate(4 164.71)">
<polygon fill="#9fb6cd" stroke="transparent" points="-4,4 -4,-164.71 166,-164.71 166,4 -4,4"/>
<!-- A -->
<g id="node1" class="node">
<title>A</title>
<ellipse fill="none" stroke="black" cx="99" cy="-80.35" rx="27" ry="18"/>
<text text-anchor="middle" x="99" y="-76.65" font-family="Times New Roman,serif" font-size="14.00">A</text>
</g>
<!-- B -->
<g id="node2" class="node">
<title>B</title>
<ellipse fill="none" stroke="black" cx="135" cy="-142.71" rx="27" ry="18"/>
<text text-anchor="middle" x="135" y="-139.01" font-family="Times New Roman,serif" font-size="14.00">B</text>
</g>
<!-- A&#45;&#45;B -->
<g id="edge1" class="edge">
<title>A&#45;&#45;B</title>
<path fill="none" stroke="black" d="M102.62,-98.39C106.79,-107.71 113.14,-118.9 119.21,-127.74"/>
<text text-anchor="middle" x="107.42" y="-101.86" font-family="Times New Roman,serif" font-size="14.00">a</text>
</g>
<!-- A&#45;&#45;B -->
<g id="edge2" class="edge">
<title>A&#45;&#45;B</title>
<path fill="none" stroke="black" d="M114.77,-95.3C120.81,-104.08 127.13,-115.21 131.3,-124.51"/>
<text text-anchor="middle" x="119.04" y="-113.7" font-family="Times New Roman,serif" font-size="14.00">b</text>
</g>
<!-- C -->
<g id="node3" class="node">
<title>C</title>
<ellipse fill="none" stroke="black" cx="27" cy="-80.35" rx="27" ry="18"/>
<text text-anchor="middle" x="27" y="-76.65" font-family="Times New Roman,serif" font-size="14.00">C</text>
</g>
<!-- A&#45;&#45;C -->
<g id="edge3" class="edge">
<title>A&#45;&#45;C</title>
<path fill="none" stroke="black" d="M73.41,-73.86C66.62,-73.52 59.29,-73.52 52.5,-73.87"/>
<text text-anchor="middle" x="59.46" y="-77.66" font-family="Times New Roman,serif" font-size="14.00">c</text>
</g>
<!-- A&#45;&#45;C -->
<g id="edge4" class="edge">
<title>A&#45;&#45;C</title>
<path fill="none" stroke="black" d="M73.41,-86.85C66.62,-87.19 59.29,-87.19 52.5,-86.84"/>
<text text-anchor="middle" x="66.96" y="-90.64" font-family="Times New Roman,serif" font-size="14.00">d</text>
</g>
<!-- D -->
<g id="node4" class="node">
<title>D</title>
<ellipse fill="none" stroke="black" cx="135" cy="-18" rx="27" ry="18"/>
<text text-anchor="middle" x="135" y="-14.3" font-family="Times New Roman,serif" font-size="14.00">D</text>
</g>
<!-- A&#45;&#45;D -->
<g id="edge5" class="edge">
<title>A&#45;&#45;D</title>
<path fill="none" stroke="black" d="M108.84,-63.32C113.92,-54.52 120.1,-43.81 125.17,-35.02"/>
<text text-anchor="middle" x="113.51" y="-52.97" font-family="Times New Roman,serif" font-size="14.00">e</text>
</g>
<!-- D&#45;&#45;B -->
<g id="edge7" class="edge">
<title>D&#45;&#45;B</title>
<path fill="none" stroke="black" d="M135,-36.13C135,-59.78 135,-100.9 135,-124.55"/>
<text text-anchor="middle" x="132.5" y="-84.14" font-family="Times New Roman,serif" font-size="14.00">f</text>
</g>
<!-- D&#45;&#45;C -->
<g id="edge6" class="edge">
<title>D&#45;&#45;C</title>
<path fill="none" stroke="black" d="M114.43,-29.88C95.21,-40.97 66.68,-57.44 47.49,-68.52"/>
<text text-anchor="middle" x="77.46" y="-38" font-family="Times New Roman,serif" font-size="14.00">g</text>
</g>
</g>
</svg>
