<?xml version="1.0" encoding="UTF-8" standalone="no"?>
<!DOCTYPE svg PUBLIC "-//W3C//DTD SVG 1.1//EN" "http://www.w3.org/Graphics/SVG/1.1/DTD/svg11.dtd">
<!-- Generated by graphviz version 2.40.1 (20161225.0304)
 -->
<!-- Title: G Pages: 1 -->
<svg width="126pt" height="260pt" viewBox="0.00 0.00 126.00 260.00" xmlns="http://www.w3.org/2000/svg" xmlns:xlink="http://www.w3.org/1999/xlink">
<g id="graph0" class="graph" transform="scale(1 1) rotate(0) translate(4 256)">
<title>G</title>
<polygon fill="#9fb6cd" stroke="transparent" points="-4,4 -4,-256 122,-256 122,4 -4,4"/>
<!-- 0 -->
<g id="node1" class="node">
<title>0</title>
<ellipse fill="none" stroke="#000000" cx="58" cy="-234" rx="27" ry="18"/>
<text text-anchor="middle" x="58" y="-229.8" font-family="Times,serif" font-size="14.00" fill="#000000">0</text>
</g>
<!-- 1 -->
<g id="node2" class="node">
<title>1</title>
<ellipse fill="none" stroke="#000000" cx="29" cy="-162" rx="27" ry="18"/>
<text text-anchor="middle" x="29" y="-157.8" font-family="Times,serif" font-size="14.00" fill="#000000">1</text>
</g>
<!-- 0&#45;&gt;1 -->
<g id="edge1" class="edge">
<title>0-&gt;1</title>
<path fill="none" stroke="#000000" d="M50.9799,-216.5708C47.6561,-208.3187 43.6103,-198.2738 39.9001,-189.0623"/>
<polygon fill="#000000" stroke="#000000" points="43.0387,-187.4864 36.056,-179.5182 36.5456,-190.1018 43.0387,-187.4864"/>
</g>
<!-- 3 -->
<g id="node4" class="node">
<title>3</title>
<ellipse fill="none" stroke="#000000" cx="91" cy="-90" rx="27" ry="18"/>
<text text-anchor="middle" x="91" y="-85.8" font-family="Times,serif" font-size="14.00" fill="#000000">3</text>
</g>
<!-- 0&#45;&gt;3 -->
<g id="edge3" class="edge">
<title>0-&gt;3</title>
<path fill="none" stroke="#000000" d="M62.1127,-216.0535C67.7448,-191.4774 77.9144,-147.1008 84.561,-118.0974"/>
<polygon fill="#000000" stroke="#000000" points="88.0131,-118.7019 86.8354,-108.1727 81.19,-117.1382 88.0131,-118.7019"/>
</g>
<!-- 2 -->
<g id="node3" class="node">
<title>2</title>
<ellipse fill="none" stroke="#000000" cx="27" cy="-18" rx="27" ry="18"/>
<text text-anchor="middle" x="27" y="-13.8" font-family="Times,serif" font-size="14.00" fill="#000000">2</text>
</g>
<!-- 1&#45;&gt;2 -->
<g id="edge2" class="edge">
<title>1-&gt;2</title>
<path fill="none" stroke="#000000" d="M24.1069,-144.0535C21.2837,-119.5852 20.384,-75.4896 21.8898,-46.4799"/>
<polygon fill="#000000" stroke="#000000" points="25.4041,-46.3858 22.5857,-36.1727 18.42,-45.9142 25.4041,-46.3858"/>
</g>
<!-- 1&#45;&gt;3 -->
<g id="edge5" class="edge">
<title>1-&gt;3</title>
<path fill="none" stroke="#000000" d="M42.4531,-146.3771C50.6266,-136.8852 61.2268,-124.5753 70.436,-113.8808"/>
<polygon fill="#000000" stroke="#000000" points="73.2708,-115.9525 77.1439,-106.091 67.9664,-111.3848 73.2708,-115.9525"/>
</g>
<!-- 2&#45;&gt;1 -->
<g id="edge4" class="edge">
<title>2-&gt;1</title>
<path fill="none" stroke="#000000" d="M31.8669,-35.7204C34.7174,-60.2001 35.625,-104.6306 34.0994,-133.7265"/>
<polygon fill="#000000" stroke="#000000" points="30.5837,-133.8383 33.3946,-144.0535 37.5675,-134.315 30.5837,-133.8383"/>
</g>
<!-- 2&#45;&gt;2 -->
<g id="edge7" class="edge">
<title>2-&gt;2</title>
<path fill="none" stroke="#000000" d="M46.895,-30.4321C59.688,-33.6753 72,-29.5313 72,-18 72,-9.6218 65.5006,-5.1433 57.0395,-4.5644"/>
<polygon fill="#000000" stroke="#000000" points="56.5019,-1.1004 46.895,-5.5679 57.191,-8.0665 56.5019,-1.1004"/>
</g>
<!-- 3&#45;&gt;2 -->
<g id="edge6" class="edge">
<title>3-&gt;2</title>
<path fill="none" stroke="#000000" d="M77.113,-74.3771C68.4747,-64.659 57.2107,-51.987 47.5503,-41.1191"/>
<polygon fill="#000000" stroke="#000000" points="50.1196,-38.7413 40.8599,-33.5924 44.8877,-43.3918 50.1196,-38.7413"/>
</g>
</g>
</svg>