<?xml version="1.0" encoding="UTF-8" standalone="no"?>
<!DOCTYPE svg PUBLIC "-//W3C//DTD SVG 1.1//EN"
 "http://www.w3.org/Graphics/SVG/1.1/DTD/svg11.dtd">
<!-- Generated by graphviz version 2.47.0 (20210316.0004)
 -->
<!-- Pages: 1 -->
<svg width="147pt" height="188pt"
 viewBox="0.00 0.00 146.93 188.00" xmlns="http://www.w3.org/2000/svg" xmlns:xlink="http://www.w3.org/1999/xlink">
<g id="graph0" class="graph" transform="scale(1 1) rotate(0) translate(4 184)">
<polygon fill="#9fb6cd" stroke="transparent" points="-4,4 -4,-184 142.93,-184 142.93,4 -4,4"/>
<!-- A -->
<g id="node1" class="node">
<title>A</title>
<ellipse fill="none" stroke="black" cx="27" cy="-90" rx="27" ry="18"/>
<text text-anchor="middle" x="27" y="-86.3" font-family="Times New Roman,serif" font-size="14.00">A</text>
</g>
<!-- B -->
<g id="node2" class="node">
<title>B</title>
<ellipse fill="none" stroke="black" cx="99" cy="-162" rx="27" ry="18"/>
<text text-anchor="middle" x="99" y="-158.3" font-family="Times New Roman,serif" font-size="14.00">B</text>
</g>
<!-- A&#45;&gt;B -->
<g id="edge1" class="edge">
<title>A&#45;&gt;B</title>
<path fill="none" stroke="black" d="M41.8,-105.38C51.93,-115.24 65.55,-128.48 76.96,-139.57"/>
<polygon fill="black" stroke="black" points="74.82,-142.37 84.43,-146.83 79.7,-137.35 74.82,-142.37"/>
</g>
<!-- C -->
<g id="node3" class="node">
<title>C</title>
<ellipse fill="none" stroke="black" cx="90" cy="-18" rx="27" ry="18"/>
<text text-anchor="middle" x="90" y="-14.3" font-family="Times New Roman,serif" font-size="14.00">C</text>
</g>
<!-- A&#45;&gt;C -->
<g id="edge4" class="edge">
<title>A&#45;&gt;C</title>
<path fill="none" stroke="black" d="M40.36,-74.15C48.88,-64.69 60.09,-52.24 69.69,-41.56"/>
<polygon fill="black" stroke="black" points="72.57,-43.6 76.66,-33.82 67.37,-38.92 72.57,-43.6"/>
</g>
<!-- D -->
<g id="node4" class="node">
<title>D</title>
<ellipse fill="none" stroke="black" cx="99" cy="-90" rx="27" ry="18"/>
<text text-anchor="middle" x="99" y="-86.3" font-family="Times New Roman,serif" font-size="14.00">D</text>
</g>
<!-- A&#45;&gt;D -->
<g id="edge6" class="edge">
<title>A&#45;&gt;D</title>
<path fill="none" stroke="black" d="M48.38,-101.27C54.78,-103.22 61.18,-103.89 67.58,-103.28"/>
<polygon fill="black" stroke="black" points="68.52,-106.66 77.64,-101.27 67.15,-99.8 68.52,-106.66"/>
</g>
<!-- B&#45;&gt;C -->
<g id="edge3" class="edge">
<title>B&#45;&gt;C</title>
<path fill="none" stroke="black" d="M112.75,-146.07C120.96,-136.1 130.62,-122.25 135,-108 139.7,-92.71 140.52,-87.02 135,-72 130.56,-59.91 122,-48.68 113.53,-39.71"/>
<polygon fill="black" stroke="black" points="115.77,-37 106.21,-32.43 110.83,-41.97 115.77,-37"/>
</g>
<!-- B&#45;&gt;D -->
<g id="edge2" class="edge">
<title>B&#45;&gt;D</title>
<path fill="none" stroke="black" d="M99,-143.7C99,-135.98 99,-126.71 99,-118.11"/>
<polygon fill="black" stroke="black" points="102.5,-118.1 99,-108.1 95.5,-118.1 102.5,-118.1"/>
</g>
<!-- D&#45;&gt;A -->
<g id="edge5" class="edge">
<title>D&#45;&gt;A</title>
<path fill="none" stroke="black" d="M77.64,-78.73C71.24,-76.78 64.84,-76.11 58.44,-76.72"/>
<polygon fill="black" stroke="black" points="57.49,-73.34 48.38,-78.73 58.87,-80.2 57.49,-73.34"/>
</g>
</g>
</svg>
