<?xml version="1.0" encoding="UTF-8" standalone="no"?>
<!-- Generator: Adobe Illustrator 18.0.0, SVG Export Plug-In . SVG Version: 6.00 Build 0)  -->

<svg
   xmlns:dc="http://purl.org/dc/elements/1.1/"
   xmlns:cc="http://creativecommons.org/ns#"
   xmlns:rdf="http://www.w3.org/1999/02/22-rdf-syntax-ns#"
   xmlns:svg="http://www.w3.org/2000/svg"
   xmlns="http://www.w3.org/2000/svg"
   xmlns:sodipodi="http://sodipodi.sourceforge.net/DTD/sodipodi-0.dtd"
   xmlns:inkscape="http://www.inkscape.org/namespaces/inkscape"
   version="1.1"
   id="Capa_1"
   x="0px"
   y="0px"
   viewBox="0 0 512 512"
   style="enable-background:new 0 0 512 512;"
   xml:space="preserve"
   sodipodi:docname="lock.svg"
   inkscape:version="0.92.4 (5da689c313, 2019-01-14)"><metadata
   id="metadata39"><rdf:RDF><cc:Work
       rdf:about=""><dc:format>image/svg+xml</dc:format><dc:type
         rdf:resource="http://purl.org/dc/dcmitype/StillImage" /><dc:title></dc:title></cc:Work></rdf:RDF></metadata><defs
   id="defs37" /><sodipodi:namedview
   pagecolor="#ffffff"
   bordercolor="#666666"
   borderopacity="1"
   objecttolerance="10"
   gridtolerance="10"
   guidetolerance="10"
   inkscape:pageopacity="0"
   inkscape:pageshadow="2"
   inkscape:window-width="1600"
   inkscape:window-height="837"
   id="namedview35"
   showgrid="false"
   inkscape:zoom="0.65186406"
   inkscape:cx="166.21954"
   inkscape:cy="314.77554"
   inkscape:window-x="-8"
   inkscape:window-y="-8"
   inkscape:window-maximized="1"
   inkscape:current-layer="layer1" />
<path
   style="fill:#ff0000"
   d="M 142.72461 213.12305 C 113.36409 212.95039 84.32535 215.58096 64 224 C 50.063328 229.77276 32 238.328 32 256 L 32 480 C 32 497.672 46.328 512 64 512 L 352 512 C 369.672 512 384 497.672 384 480 L 384 256 C 384 238.328 369.672 224 352 224 L 320 224 C 267.91748 224.96429 304.77428 224.76659 256 224 C 256 224 198.7765 213.45266 142.72461 213.12305 z M 208 303.99805 C 234.512 303.99805 256 325.48605 256 351.99805 C 256 372.86605 242.602 390.4485 224 397.0625 L 224 432 C 224 440.836 216.836 448 208 448 C 199.164 448 192 440.836 192 432 L 192 397.0625 C 173.398 390.4495 160 372.86605 160 351.99805 C 160 325.48605 181.488 303.99805 208 303.99805 z "
   id="path2" />
<g
   id="g4">
</g>
<g
   id="g6">
</g>
<g
   id="g8">
</g>
<g
   id="g10">
</g>
<g
   id="g12">
</g>
<g
   id="g14">
</g>
<g
   id="g16">
</g>
<g
   id="g18">
</g>
<g
   id="g20">
</g>
<g
   id="g22">
</g>
<g
   id="g24">
</g>
<g
   id="g26">
</g>
<g
   id="g28">
</g>
<g
   id="g30">
</g>
<g
   id="g32">
</g>
<path
   style="fill:none;stroke:#000000;stroke-width:1px;stroke-linecap:butt;stroke-linejoin:miter;stroke-opacity:1"
   d="m 256,224 h 64"
   id="path846"
   inkscape:connector-curvature="0" /><g
   inkscape:groupmode="layer"
   id="layer1"
   inkscape:label="Layer 1"><path
     d="M 208,21.999998 C 269.758,21.999998 320,72.242 320,134 v 112 c -48.77428,0.76659 -11.91748,0.96429 -64,0 V 134 c 0,-26.469 -21.531,-48 -48,-48 -26.469,0 -48,21.531 -48,48 v 80 c 0,17.672 -14.328,32 -32,32 -17.672,0 -32,-14.328 -32,-32 V 134 C 96,72.242 146.242,21.999998 208,21.999998 Z"
     id="path2-0-5"
     style="fill:#ff0000"
     inkscape:connector-curvature="0"
     sodipodi:nodetypes="ssccssssssss" /></g></svg>