<?xml version="1.0" encoding="UTF-8" standalone="no"?>
<!DOCTYPE svg PUBLIC "-//W3C//DTD SVG 1.1//EN" "http://www.w3.org/Graphics/SVG/1.1/DTD/svg11.dtd">
<!-- Generated by graphviz version 2.40.1 (20161225.0304)
 -->
<!-- Title: G Pages: 1 -->
<svg width="432pt" height="75pt" viewBox="0.00 0.00 432.10 75.28" xmlns="http://www.w3.org/2000/svg" xmlns:xlink="http://www.w3.org/1999/xlink">
<g id="graph0" class="graph" transform="scale(1 1) rotate(0) translate(4 71.2845)">
<title>G</title>
<polygon fill="#9fb6cd" stroke="transparent" points="-4,4 -4,-71.2845 428.101,-71.2845 428.101,4 -4,4"/>
<!-- 0 -->
<g id="node1" class="node">
<title>0</title>
<ellipse fill="none" stroke="#000000" cx="86.101" cy="-21.0662" rx="27" ry="18"/>
<text text-anchor="middle" x="86.101" y="-16.8662" font-family="Times,serif" font-size="14.00" fill="#000000">0</text>
</g>
<!-- 0&#45;&gt;0 -->
<g id="edge2" class="edge">
<title>0:w-&gt;0:w</title>
<path fill="none" stroke="#000000" d="M59.101,-21.0662C53.101,-30.0662 41.101,-30.0662 41.101,-21.0662 41.101,-15.3006 46.0258,-13.2286 51.143,-14.8502"/>
<polygon fill="#000000" stroke="#000000" points="49.0657,-17.6687 59.101,-21.0662 53.3747,-12.1522 49.0657,-17.6687"/>
<text text-anchor="middle" x="29.5505" y="-25.2662" font-family="Times,serif" font-size="14.00" fill="#000000">tout sauf b</text>
</g>
<!-- 1 -->
<g id="node2" class="node">
<title>1</title>
<ellipse fill="none" stroke="#000000" cx="217.101" cy="-21.0662" rx="27" ry="18"/>
<text text-anchor="middle" x="217.101" y="-16.8662" font-family="Times,serif" font-size="14.00" fill="#000000">1</text>
</g>
<!-- 0&#45;&gt;1 -->
<g id="edge1" class="edge">
<title>0-&gt;1</title>
<path fill="none" stroke="#000000" d="M107.5434,-9.8476C121.0094,-4.0771 138.8464,1.2662 155.101,-1.2662 164.694,-2.7608 174.8318,-5.4826 184.068,-8.4394"/>
<polygon fill="#000000" stroke="#000000" points="183.0737,-11.798 193.668,-11.6932 185.3208,-5.1684 183.0737,-11.798"/>
<text text-anchor="middle" x="151.601" y="-5.4662" font-family="Times,serif" font-size="14.00" fill="#000000">b</text>
</g>
<!-- 1&#45;&gt;0 -->
<g id="edge4" class="edge">
<title>1-&gt;0</title>
<path fill="none" stroke="#000000" d="M189.9925,-21.0662C170.7673,-21.0662 144.7224,-21.0662 123.5199,-21.0662"/>
<polygon fill="#000000" stroke="#000000" points="123.2443,-17.5663 113.2443,-21.0662 123.2443,-24.5663 123.2443,-17.5663"/>
<text text-anchor="middle" x="151.601" y="-28.2662" font-family="Times,serif" font-size="14.00" fill="#000000">tout sauf o</text>
</g>
<!-- 2 -->
<g id="node3" class="node">
<title>2</title>
<ellipse fill="none" stroke="#000000" cx="307.101" cy="-21.0662" rx="27" ry="18"/>
<text text-anchor="middle" x="307.101" y="-16.8662" font-family="Times,serif" font-size="14.00" fill="#000000">2</text>
</g>
<!-- 1&#45;&gt;2 -->
<g id="edge3" class="edge">
<title>1-&gt;2</title>
<path fill="none" stroke="#000000" d="M244.104,-21.0662C252.1287,-21.0662 261.0675,-21.0662 269.6319,-21.0662"/>
<polygon fill="#000000" stroke="#000000" points="269.8061,-24.5663 279.806,-21.0662 269.806,-17.5663 269.8061,-24.5663"/>
<text text-anchor="middle" x="262.101" y="-28.2662" font-family="Times,serif" font-size="14.00" fill="#000000">o</text>
</g>
<!-- 2&#45;&gt;0 -->
<g id="edge6" class="edge">
<title>2-&gt;0</title>
<path fill="none" stroke="#000000" d="M286.2252,-32.5504C274.2795,-38.4637 258.7884,-45.0515 244.101,-48.0662 201.0549,-56.9018 150.9966,-44.564 118.9554,-33.812"/>
<polygon fill="#000000" stroke="#000000" points="119.812,-30.4038 109.2172,-30.4057 117.5008,-37.0112 119.812,-30.4038"/>
<text text-anchor="middle" x="167.1119" y="-54.6845" font-family="Times,serif" font-size="14.00" fill="#000000">tout sauf b</text>
</g>
<!-- fin -->
<g id="node4" class="node">
<title>fin</title>
<ellipse fill="none" stroke="#000000" cx="397.101" cy="-21.0662" rx="27" ry="18"/>
<text text-anchor="middle" x="397.101" y="-16.8662" font-family="Times,serif" font-size="14.00" fill="#000000">fin</text>
</g>
<!-- 2&#45;&gt;fin -->
<g id="edge5" class="edge">
<title>2-&gt;fin</title>
<path fill="none" stroke="#000000" d="M334.104,-21.0662C342.1287,-21.0662 351.0675,-21.0662 359.6319,-21.0662"/>
<polygon fill="#000000" stroke="#000000" points="359.8061,-24.5663 369.806,-21.0662 359.806,-17.5663 359.8061,-24.5663"/>
<text text-anchor="middle" x="352.101" y="-28.2662" font-family="Times,serif" font-size="14.00" fill="#000000">b</text>
</g>
</g>
</svg>