<?xml version="1.0" encoding="UTF-8" standalone="no"?>
<!DOCTYPE svg PUBLIC "-//W3C//DTD SVG 1.1//EN" "http://www.w3.org/Graphics/SVG/1.1/DTD/svg11.dtd">
<!-- Generated by graphviz version 2.40.1 (20161225.0304)
 -->
<!-- Title: G Pages: 1 -->
<svg width="172pt" height="260pt" viewBox="0.00 0.00 172.00 260.00" xmlns="http://www.w3.org/2000/svg" xmlns:xlink="http://www.w3.org/1999/xlink">
<g id="graph0" class="graph" transform="scale(1 1) rotate(0) translate(4 256)">
<title>G</title>
<polygon fill="#ffffff" stroke="transparent" points="-4,4 -4,-256 168,-256 168,4 -4,4"/>
<!-- A -->
<g id="node1" class="node">
<title>A</title>
<ellipse fill="none" stroke="#000000" cx="63" cy="-234" rx="27" ry="18"/>
<text text-anchor="middle" x="63" y="-229.8" font-family="Times,serif" font-size="14.00" fill="#000000">A</text>
</g>
<!-- B -->
<g id="node2" class="node">
<title>B</title>
<ellipse fill="none" stroke="#000000" cx="27" cy="-162" rx="27" ry="18"/>
<text text-anchor="middle" x="27" y="-157.8" font-family="Times,serif" font-size="14.00" fill="#000000">B</text>
</g>
<!-- A&#45;&#45;B -->
<g id="edge1" class="edge">
<title>A--B</title>
<path fill="none" stroke="#000000" d="M54.2854,-216.5708C48.6253,-205.2506 41.2784,-190.5568 35.6343,-179.2687"/>
</g>
<!-- C -->
<g id="node4" class="node">
<title>C</title>
<ellipse fill="none" stroke="#000000" cx="99" cy="-162" rx="27" ry="18"/>
<text text-anchor="middle" x="99" y="-157.8" font-family="Times,serif" font-size="14.00" fill="#000000">C</text>
</g>
<!-- A&#45;&#45;C -->
<g id="edge3" class="edge">
<title>A--C</title>
<path fill="none" stroke="#000000" d="M71.7146,-216.5708C77.3747,-205.2506 84.7216,-190.5568 90.3657,-179.2687"/>
</g>
<!-- F -->
<g id="node3" class="node">
<title>F</title>
<ellipse fill="none" stroke="#000000" cx="27" cy="-90" rx="27" ry="18"/>
<text text-anchor="middle" x="27" y="-85.8" font-family="Times,serif" font-size="14.00" fill="#000000">F</text>
</g>
<!-- B&#45;&#45;F -->
<g id="edge2" class="edge">
<title>B--F</title>
<path fill="none" stroke="#000000" d="M27,-143.8314C27,-133 27,-119.2876 27,-108.4133"/>
</g>
<!-- D -->
<g id="node5" class="node">
<title>D</title>
<ellipse fill="none" stroke="#000000" cx="54" cy="-18" rx="27" ry="18"/>
<text text-anchor="middle" x="54" y="-13.8" font-family="Times,serif" font-size="14.00" fill="#000000">D</text>
</g>
<!-- F&#45;&#45;D -->
<g id="edge6" class="edge">
<title>F--D</title>
<path fill="none" stroke="#000000" d="M33.6742,-72.2022C37.8593,-61.0419 43.2321,-46.7143 47.4026,-35.593"/>
</g>
<!-- C&#45;&#45;D -->
<g id="edge4" class="edge">
<title>C--D</title>
<path fill="none" stroke="#000000" d="M93.4821,-144.3428C84.8454,-116.7053 68.2274,-63.5278 59.563,-35.8017"/>
</g>
<!-- E -->
<g id="node6" class="node">
<title>E</title>
<ellipse fill="none" stroke="#000000" cx="137" cy="-90" rx="27" ry="18"/>
<text text-anchor="middle" x="137" y="-85.8" font-family="Times,serif" font-size="14.00" fill="#000000">E</text>
</g>
<!-- C&#45;&#45;E -->
<g id="edge5" class="edge">
<title>C--E</title>
<path fill="none" stroke="#000000" d="M108.0055,-144.937C113.9752,-133.626 121.7851,-118.8282 127.7952,-107.4407"/>
</g>
</g>
</svg>