<?xml version="1.0" encoding="UTF-8" standalone="no"?>
<!DOCTYPE svg PUBLIC "-//W3C//DTD SVG 1.1//EN" "http://www.w3.org/Graphics/SVG/1.1/DTD/svg11.dtd">
<!-- Generated by graphviz version 2.40.1 (20161225.0304)
 -->
<!-- Title: G Pages: 1 -->
<svg width="123pt" height="332pt" viewBox="0.00 0.00 123.46 332.00" xmlns="http://www.w3.org/2000/svg" xmlns:xlink="http://www.w3.org/1999/xlink">
<g id="graph0" class="graph" transform="scale(1 1) rotate(0) translate(4 328)">
<title>G</title>
<polygon fill="#9fb6cd" stroke="transparent" points="-4,4 -4,-328 119.4556,-328 119.4556,4 -4,4"/>
<!-- A -->
<g id="node1" class="node">
<title>A</title>
<ellipse fill="none" stroke="#000000" cx="82" cy="-306" rx="27" ry="18"/>
<text text-anchor="middle" x="82" y="-301.8" font-family="Times,serif" font-size="14.00" fill="#000000">A</text>
</g>
<!-- B -->
<g id="node2" class="node">
<title>B</title>
<ellipse fill="none" stroke="#000000" cx="27" cy="-234" rx="27" ry="18"/>
<text text-anchor="middle" x="27" y="-229.8" font-family="Times,serif" font-size="14.00" fill="#000000">B</text>
</g>
<!-- A&#45;&gt;B -->
<g id="edge1" class="edge">
<title>A-&gt;B</title>
<path fill="none" stroke="#000000" d="M69.5196,-289.6621C62.4876,-280.4564 53.5653,-268.7764 45.7117,-258.4953"/>
<polygon fill="#000000" stroke="#000000" points="48.2828,-256.0953 39.431,-250.2733 42.72,-260.3446 48.2828,-256.0953"/>
</g>
<!-- E -->
<g id="node4" class="node">
<title>E</title>
<ellipse fill="none" stroke="#000000" cx="74" cy="-162" rx="27" ry="18"/>
<text text-anchor="middle" x="74" y="-157.8" font-family="Times,serif" font-size="14.00" fill="#000000">E</text>
</g>
<!-- A&#45;&gt;E -->
<g id="edge4" class="edge">
<title>A-&gt;E</title>
<path fill="none" stroke="#000000" d="M80.9868,-287.7623C79.6223,-263.201 77.1804,-219.2474 75.5752,-190.3541"/>
<polygon fill="#000000" stroke="#000000" points="79.0544,-189.88 75.005,-180.0896 72.0652,-190.2684 79.0544,-189.88"/>
</g>
<!-- D -->
<g id="node3" class="node">
<title>D</title>
<ellipse fill="none" stroke="#000000" cx="46" cy="-18" rx="27" ry="18"/>
<text text-anchor="middle" x="46" y="-13.8" font-family="Times,serif" font-size="14.00" fill="#000000">D</text>
</g>
<!-- B&#45;&gt;D -->
<g id="edge2" class="edge">
<title>B-&gt;D</title>
<path fill="none" stroke="#000000" d="M27.7564,-215.9798C29.1184,-186.0276 32.3776,-124.1306 38,-72 38.9146,-63.5196 40.1749,-54.3278 41.4248,-45.9729"/>
<polygon fill="#000000" stroke="#000000" points="44.9047,-46.372 42.9756,-35.9542 37.987,-45.3011 44.9047,-46.372"/>
</g>
<!-- B&#45;&gt;E -->
<g id="edge3" class="edge">
<title>B-&gt;E</title>
<path fill="none" stroke="#000000" d="M37.9009,-217.3008C43.7736,-208.3043 51.1366,-197.0247 57.6787,-187.0029"/>
<polygon fill="#000000" stroke="#000000" points="60.6228,-188.8957 63.1582,-178.6087 54.7611,-185.0693 60.6228,-188.8957"/>
</g>
<!-- C -->
<g id="node5" class="node">
<title>C</title>
<ellipse fill="none" stroke="#000000" cx="74" cy="-90" rx="27" ry="18"/>
<text text-anchor="middle" x="74" y="-85.8" font-family="Times,serif" font-size="14.00" fill="#000000">C</text>
</g>
<!-- E&#45;&gt;C -->
<g id="edge7" class="edge">
<title>E-&gt;C</title>
<path fill="none" stroke="#000000" d="M74,-143.8314C74,-136.131 74,-126.9743 74,-118.4166"/>
<polygon fill="#000000" stroke="#000000" points="77.5001,-118.4132 74,-108.4133 70.5001,-118.4133 77.5001,-118.4132"/>
</g>
<!-- C&#45;&gt;A -->
<g id="edge5" class="edge">
<title>C-&gt;A</title>
<path fill="none" stroke="#000000" d="M88.1229,-105.7156C96.2535,-115.8532 105.6901,-129.7653 110,-144 124.0918,-190.5419 107.0247,-246.8881 94.0312,-279.3739"/>
<polygon fill="#000000" stroke="#000000" points="90.7807,-278.0753 90.1686,-288.6524 97.2431,-280.7656 90.7807,-278.0753"/>
</g>
<!-- C&#45;&gt;D -->
<g id="edge6" class="edge">
<title>C-&gt;D</title>
<path fill="none" stroke="#000000" d="M67.222,-72.5708C64.0128,-64.3187 60.1065,-54.2738 56.5242,-45.0623"/>
<polygon fill="#000000" stroke="#000000" points="59.6992,-43.5697 52.8126,-35.5182 53.1752,-46.1069 59.6992,-43.5697"/>
</g>
</g>
</svg>