<?xml version="1.0" encoding="UTF-8" standalone="no"?>
<!DOCTYPE svg PUBLIC "-//W3C//DTD SVG 1.1//EN" "http://www.w3.org/Graphics/SVG/1.1/DTD/svg11.dtd">
<!-- Generated by graphviz version 2.40.1 (20161225.0304)
 -->
<!-- Title: G Pages: 1 -->
<svg width="291pt" height="188pt" viewBox="0.00 0.00 291.00 188.00" xmlns="http://www.w3.org/2000/svg" xmlns:xlink="http://www.w3.org/1999/xlink">
<g id="graph0" class="graph" transform="scale(1 1) rotate(0) translate(4 184)">
<title>G</title>
<polygon fill="#9fb6cd" stroke="transparent" points="-4,4 -4,-184 287,-184 287,4 -4,4"/>
<!-- A -->
<g id="node1" class="node">
<title>A</title>
<ellipse fill="none" stroke="#000000" cx="92" cy="-162" rx="27" ry="18"/>
<text text-anchor="middle" x="92" y="-157.8" font-family="Times,serif" font-size="14.00" fill="#000000">A</text>
</g>
<!-- B -->
<g id="node2" class="node">
<title>B</title>
<ellipse fill="none" stroke="#000000" cx="44" cy="-90" rx="27" ry="18"/>
<text text-anchor="middle" x="44" y="-85.8" font-family="Times,serif" font-size="14.00" fill="#000000">B</text>
</g>
<!-- A&#45;&gt;B -->
<g id="edge1" class="edge">
<title>A-&gt;B</title>
<path fill="none" stroke="#000000" d="M80.8672,-145.3008C74.8696,-136.3043 67.3498,-125.0247 60.6686,-115.0029"/>
<polygon fill="#000000" stroke="#000000" points="63.5317,-112.9877 55.0724,-106.6087 57.7073,-116.8706 63.5317,-112.9877"/>
</g>
<!-- C -->
<g id="node3" class="node">
<title>C</title>
<ellipse fill="none" stroke="#000000" cx="27" cy="-18" rx="27" ry="18"/>
<text text-anchor="middle" x="27" y="-13.8" font-family="Times,serif" font-size="14.00" fill="#000000">C</text>
</g>
<!-- B&#45;&gt;C -->
<g id="edge2" class="edge">
<title>B-&gt;C</title>
<path fill="none" stroke="#000000" d="M39.7978,-72.2022C37.9179,-64.2406 35.6575,-54.6671 33.5629,-45.7957"/>
<polygon fill="#000000" stroke="#000000" points="36.9172,-44.7706 31.2128,-35.8425 30.1045,-46.3792 36.9172,-44.7706"/>
</g>
<!-- D -->
<g id="node4" class="node">
<title>D</title>
<ellipse fill="none" stroke="#000000" cx="99" cy="-18" rx="27" ry="18"/>
<text text-anchor="middle" x="99" y="-13.8" font-family="Times,serif" font-size="14.00" fill="#000000">D</text>
</g>
<!-- B&#45;&gt;D -->
<g id="edge3" class="edge">
<title>B-&gt;D</title>
<path fill="none" stroke="#000000" d="M56.4804,-73.6621C63.5124,-64.4564 72.4347,-52.7764 80.2883,-42.4953"/>
<polygon fill="#000000" stroke="#000000" points="83.28,-44.3446 86.569,-34.2733 77.7172,-40.0953 83.28,-44.3446"/>
</g>
<!-- D&#45;&gt;A -->
<g id="edge4" class="edge">
<title>D-&gt;A</title>
<path fill="none" stroke="#000000" d="M98.1206,-36.0896C96.9305,-60.5727 94.7943,-104.5174 93.3868,-133.4713"/>
<polygon fill="#000000" stroke="#000000" points="89.8763,-133.6041 92.8866,-143.7623 96.8681,-133.9441 89.8763,-133.6041"/>
</g>
<!-- E -->
<g id="node5" class="node">
<title>E</title>
<ellipse fill="none" stroke="#000000" cx="191" cy="-162" rx="27" ry="18"/>
<text text-anchor="middle" x="191" y="-157.8" font-family="Times,serif" font-size="14.00" fill="#000000">E</text>
</g>
<!-- F -->
<g id="node6" class="node">
<title>F</title>
<ellipse fill="none" stroke="#000000" cx="191" cy="-90" rx="27" ry="18"/>
<text text-anchor="middle" x="191" y="-85.8" font-family="Times,serif" font-size="14.00" fill="#000000">F</text>
</g>
<!-- E&#45;&gt;F -->
<g id="edge5" class="edge">
<title>E-&gt;F</title>
<path fill="none" stroke="#000000" d="M191,-143.8314C191,-136.131 191,-126.9743 191,-118.4166"/>
<polygon fill="#000000" stroke="#000000" points="194.5001,-118.4132 191,-108.4133 187.5001,-118.4133 194.5001,-118.4132"/>
</g>
<!-- G -->
<g id="node7" class="node">
<title>G</title>
<ellipse fill="none" stroke="#000000" cx="184" cy="-18" rx="27" ry="18"/>
<text text-anchor="middle" x="184" y="-13.8" font-family="Times,serif" font-size="14.00" fill="#000000">G</text>
</g>
<!-- F&#45;&gt;G -->
<g id="edge6" class="edge">
<title>F-&gt;G</title>
<path fill="none" stroke="#000000" d="M189.2336,-71.8314C188.485,-64.131 187.5947,-54.9743 186.7627,-46.4166"/>
<polygon fill="#000000" stroke="#000000" points="190.2415,-46.0276 185.7902,-36.4133 183.2744,-46.7051 190.2415,-46.0276"/>
</g>
<!-- H -->
<g id="node8" class="node">
<title>H</title>
<ellipse fill="none" stroke="#000000" cx="256" cy="-18" rx="27" ry="18"/>
<text text-anchor="middle" x="256" y="-13.8" font-family="Times,serif" font-size="14.00" fill="#000000">H</text>
</g>
<!-- F&#45;&gt;H -->
<g id="edge7" class="edge">
<title>F-&gt;H</title>
<path fill="none" stroke="#000000" d="M205.104,-74.3771C213.8773,-64.659 225.3173,-51.987 235.1286,-41.1191"/>
<polygon fill="#000000" stroke="#000000" points="237.8204,-43.3605 241.9235,-33.5924 232.6245,-38.6698 237.8204,-43.3605"/>
</g>
</g>
</svg>