<?xml version="1.0" encoding="UTF-8" standalone="no"?>
<!DOCTYPE svg PUBLIC "-//W3C//DTD SVG 1.1//EN" "http://www.w3.org/Graphics/SVG/1.1/DTD/svg11.dtd">
<!-- Generated by graphviz version 2.40.1 (20161225.0304)
 -->
<!-- Title: G Pages: 1 -->
<svg width="109pt" height="222pt" viewBox="0.00 0.00 109.00 221.60" xmlns="http://www.w3.org/2000/svg" xmlns:xlink="http://www.w3.org/1999/xlink">
<g id="graph0" class="graph" transform="scale(1 1) rotate(0) translate(4 217.6)">
<title>G</title>
<polygon fill="#9fb6cd" stroke="transparent" points="-4,4 -4,-217.6 105,-217.6 105,4 -4,4"/>
<!-- 0 -->
<g id="node1" class="node">
<title>0</title>
<ellipse fill="none" stroke="#000000" cx="74" cy="-195.6" rx="27" ry="18"/>
<text text-anchor="middle" x="74" y="-191.4" font-family="Times,serif" font-size="14.00" fill="#000000">0</text>
</g>
<!-- 1 -->
<g id="node2" class="node">
<title>1</title>
<ellipse fill="none" stroke="#000000" cx="27" cy="-106.8" rx="27" ry="18"/>
<text text-anchor="middle" x="27" y="-102.6" font-family="Times,serif" font-size="14.00" fill="#000000">1</text>
</g>
<!-- 0&#45;&#45;1 -->
<g id="edge1" class="edge">
<title>0--1</title>
<path fill="none" stroke="#000000" d="M64.9379,-178.4785C56.6153,-162.754 44.3481,-139.5768 36.0343,-123.869"/>
<text text-anchor="middle" x="62" y="-147" font-family="Times,serif" font-size="14.00" fill="#000000">20</text>
</g>
<!-- 2 -->
<g id="node3" class="node">
<title>2</title>
<ellipse fill="none" stroke="#000000" cx="58" cy="-18" rx="27" ry="18"/>
<text text-anchor="middle" x="58" y="-13.8" font-family="Times,serif" font-size="14.00" fill="#000000">2</text>
</g>
<!-- 1&#45;&#45;2 -->
<g id="edge2" class="edge">
<title>1--2</title>
<path fill="none" stroke="#000000" d="M33.1246,-89.256C38.524,-73.7892 46.3548,-51.3579 51.782,-35.8115"/>
<text text-anchor="middle" x="53" y="-58.2" font-family="Times,serif" font-size="14.00" fill="#000000">42</text>
</g>
<!-- 2&#45;&#45;0 -->
<g id="edge3" class="edge">
<title>2--0</title>
<path fill="none" stroke="#000000" d="M61.2178,-35.9111C62.1908,-41.6748 63.2097,-48.0966 64,-54 69.2635,-93.3181 70.6224,-103.2025 73,-142.8 73.6924,-154.3313 73.9455,-167.3022 74.0239,-177.5022"/>
<text text-anchor="middle" x="81.5" y="-102.6" font-family="Times,serif" font-size="14.00" fill="#000000">128</text>
</g>
</g>
</svg>