<?xml version="1.0" encoding="UTF-8" standalone="no"?>
<!DOCTYPE svg PUBLIC "-//W3C//DTD SVG 1.1//EN" "http://www.w3.org/Graphics/SVG/1.1/DTD/svg11.dtd">
<!-- Generated by graphviz version 2.40.1 (20161225.0304)
 -->
<!-- Title: G Pages: 1 -->
<svg width="243pt" height="235pt" viewBox="0.00 0.00 243.39 234.72" xmlns="http://www.w3.org/2000/svg" xmlns:xlink="http://www.w3.org/1999/xlink">
<g id="graph0" class="graph" transform="scale(1 1) rotate(0) translate(4 230.7203)">
<title>G</title>
<polygon fill="#9fb6cd" stroke="transparent" points="-4,4 -4,-230.7203 239.3858,-230.7203 239.3858,4 -4,4"/>
<!-- 0 -->
<g id="node1" class="node">
<title>0</title>
<ellipse fill="none" stroke="#000000" cx="27" cy="-172.296" rx="27" ry="18"/>
<text text-anchor="middle" x="27" y="-168.096" font-family="Times,serif" font-size="14.00" fill="#000000">0</text>
</g>
<!-- 1 -->
<g id="node2" class="node">
<title>1</title>
<ellipse fill="none" stroke="#000000" cx="139.1026" cy="-18" rx="27" ry="18"/>
<text text-anchor="middle" x="139.1026" y="-13.8" font-family="Times,serif" font-size="14.00" fill="#000000">1</text>
</g>
<!-- 0&#45;&gt;1 -->
<g id="edge1" class="edge">
<title>0-&gt;1</title>
<path fill="none" stroke="#000000" d="M38.7851,-156.0752C58.4136,-129.0588 97.9266,-74.6739 121.0735,-42.8149"/>
<polygon fill="#000000" stroke="#000000" points="124.0917,-44.6153 127.138,-34.4678 118.4286,-40.5007 124.0917,-44.6153"/>
</g>
<!-- 3 -->
<g id="node4" class="node">
<title>3</title>
<ellipse fill="none" stroke="#000000" cx="139.1026" cy="-208.7203" rx="27" ry="18"/>
<text text-anchor="middle" x="139.1026" y="-204.5203" font-family="Times,serif" font-size="14.00" fill="#000000">3</text>
</g>
<!-- 0&#45;&gt;3 -->
<g id="edge5" class="edge">
<title>0-&gt;3</title>
<path fill="none" stroke="#000000" d="M51.3246,-180.1995C67.043,-185.3068 87.7248,-192.0267 105.0649,-197.6608"/>
<polygon fill="#000000" stroke="#000000" points="104.2333,-201.0707 114.8255,-200.8322 106.3965,-194.4133 104.2333,-201.0707"/>
</g>
<!-- 4 -->
<g id="node5" class="node">
<title>4</title>
<ellipse fill="none" stroke="#000000" cx="208.3858" cy="-113.3602" rx="27" ry="18"/>
<text text-anchor="middle" x="208.3858" y="-109.1602" font-family="Times,serif" font-size="14.00" fill="#000000">4</text>
</g>
<!-- 0&#45;&gt;4 -->
<g id="edge7" class="edge">
<title>0-&gt;4</title>
<path fill="none" stroke="#000000" d="M51.4625,-164.3476C83.1946,-154.0373 138.7112,-135.9988 174.49,-124.3736"/>
<polygon fill="#000000" stroke="#000000" points="175.5929,-127.6954 184.0219,-121.2765 173.4298,-121.038 175.5929,-127.6954"/>
</g>
<!-- 2 -->
<g id="node3" class="node">
<title>2</title>
<ellipse fill="none" stroke="#000000" cx="27" cy="-54.4243" rx="27" ry="18"/>
<text text-anchor="middle" x="27" y="-50.2243" font-family="Times,serif" font-size="14.00" fill="#000000">2</text>
</g>
<!-- 1&#45;&gt;2 -->
<g id="edge2" class="edge">
<title>1-&gt;2</title>
<path fill="none" stroke="#000000" d="M114.778,-25.9035C99.0596,-31.0108 78.3778,-37.7307 61.0377,-43.3648"/>
<polygon fill="#000000" stroke="#000000" points="59.7061,-40.1173 51.2771,-46.5362 61.8693,-46.7747 59.7061,-40.1173"/>
</g>
<!-- 2&#45;&gt;0 -->
<g id="edge4" class="edge">
<title>2-&gt;0</title>
<path fill="none" stroke="#000000" d="M27,-72.5835C27,-91.5634 27,-121.6099 27,-143.7637"/>
<polygon fill="#000000" stroke="#000000" points="23.5001,-143.922 27,-153.922 30.5001,-143.9221 23.5001,-143.922"/>
</g>
<!-- 2&#45;&gt;3 -->
<g id="edge3" class="edge">
<title>2-&gt;3</title>
<path fill="none" stroke="#000000" d="M38.7851,-70.6451C58.4136,-97.6615 97.9266,-152.0465 121.0735,-183.9055"/>
<polygon fill="#000000" stroke="#000000" points="118.4286,-186.2196 127.138,-192.2525 124.0917,-182.1051 118.4286,-186.2196"/>
</g>
<!-- 3&#45;&gt;4 -->
<g id="edge6" class="edge">
<title>3-&gt;4</title>
<path fill="none" stroke="#000000" d="M151.1708,-192.1099C161.9997,-177.2052 178.0411,-155.1261 190.385,-138.1361"/>
<polygon fill="#000000" stroke="#000000" points="193.4096,-139.9277 196.4559,-129.7803 187.7464,-135.8132 193.4096,-139.9277"/>
</g>
</g>
</svg>