<?xml version="1.0" encoding="UTF-8" standalone="no"?>
<svg
   xmlns:osb="http://www.openswatchbook.org/uri/2009/osb"
   xmlns:dc="http://purl.org/dc/elements/1.1/"
   xmlns:cc="http://creativecommons.org/ns#"
   xmlns:rdf="http://www.w3.org/1999/02/22-rdf-syntax-ns#"
   xmlns:svg="http://www.w3.org/2000/svg"
   xmlns="http://www.w3.org/2000/svg"
   xmlns:xlink="http://www.w3.org/1999/xlink"
   xmlns:sodipodi="http://sodipodi.sourceforge.net/DTD/sodipodi-0.dtd"
   xmlns:inkscape="http://www.inkscape.org/namespaces/inkscape"
   width="210mm"
   height="297mm"
   viewBox="0 0 210 297"
   version="1.1"
   id="svg8"
   inkscape:version="1.0.1 (3bc2e813f5, 2020-09-07)"
   sodipodi:docname="EventLoop.svg">
  <defs
     id="defs2">
    <marker
       style="overflow:visible;"
       id="marker2599"
       refX="0.0"
       refY="0.0"
       orient="auto"
       inkscape:stockid="Arrow1Mend"
       inkscape:isstock="true">
      <path
         transform="scale(0.4) rotate(180) translate(10,0)"
         style="fill-rule:evenodd;stroke:#000000;stroke-width:1pt;stroke-opacity:1;fill:#000000;fill-opacity:1"
         d="M 0.0,0.0 L 5.0,-5.0 L -12.5,0.0 L 5.0,5.0 L 0.0,0.0 z "
         id="path2597" />
    </marker>
    <linearGradient
       id="linearGradient2583"
       osb:paint="solid">
      <stop
         style="stop-color:#d40000;stop-opacity:1;"
         offset="0"
         id="stop2581" />
    </linearGradient>
    <linearGradient
       id="linearGradient2575"
       osb:paint="solid">
      <stop
         style="stop-color:#000000;stop-opacity:1;"
         offset="0"
         id="stop2573" />
    </linearGradient>
    <rect
       x="22.076463"
       y="246.20869"
       width="47.894699"
       height="11.973675"
       id="rect2569" />
    <marker
       style="overflow:visible;"
       id="Arrow1Mend"
       refX="0.0"
       refY="0.0"
       orient="auto"
       inkscape:stockid="Arrow1Mend"
       inkscape:isstock="true"
       inkscape:collect="always">
      <path
         transform="scale(0.4) rotate(180) translate(10,0)"
         style="fill-rule:evenodd;stroke:#000000;stroke-width:1pt;stroke-opacity:1;fill:#000000;fill-opacity:1"
         d="M 0.0,0.0 L 5.0,-5.0 L -12.5,0.0 L 5.0,5.0 L 0.0,0.0 z "
         id="path874" />
    </marker>
    <marker
       style="overflow:visible;"
       id="marker2341"
       refX="0.0"
       refY="0.0"
       orient="auto"
       inkscape:stockid="Arrow1Send"
       inkscape:isstock="true">
      <path
         transform="scale(0.2) rotate(180) translate(6,0)"
         style="fill-rule:evenodd;stroke:#000000;stroke-width:1pt;stroke-opacity:1;fill:#000000;fill-opacity:1"
         d="M 0.0,0.0 L 5.0,-5.0 L -12.5,0.0 L 5.0,5.0 L 0.0,0.0 z "
         id="path2339" />
    </marker>
    <marker
       style="overflow:visible;"
       id="Arrow2Lend"
       refX="0.0"
       refY="0.0"
       orient="auto"
       inkscape:stockid="Arrow2Lend"
       inkscape:isstock="true">
      <path
         transform="scale(1.1) rotate(180) translate(1,0)"
         d="M 8.7185878,4.0337352 L -2.2072895,0.016013256 L 8.7185884,-4.0017078 C 6.9730900,-1.6296469 6.9831476,1.6157441 8.7185878,4.0337352 z "
         style="fill-rule:evenodd;stroke-width:0.625;stroke-linejoin:round;stroke:#000000;stroke-opacity:1;fill:#000000;fill-opacity:1"
         id="path886" />
    </marker>
    <marker
       style="overflow:visible;"
       id="marker2141"
       refX="0.0"
       refY="0.0"
       orient="auto"
       inkscape:stockid="Arrow1Send"
       inkscape:isstock="true">
      <path
         transform="scale(0.2) rotate(180) translate(6,0)"
         style="fill-rule:evenodd;stroke:#000000;stroke-width:1pt;stroke-opacity:1;fill:#000000;fill-opacity:1"
         d="M 0.0,0.0 L 5.0,-5.0 L -12.5,0.0 L 5.0,5.0 L 0.0,0.0 z "
         id="path2139" />
    </marker>
    <marker
       style="overflow:visible;"
       id="marker2053"
       refX="0.0"
       refY="0.0"
       orient="auto"
       inkscape:stockid="Arrow1Send"
       inkscape:isstock="true">
      <path
         transform="scale(0.2) rotate(180) translate(6,0)"
         style="fill-rule:evenodd;stroke:#000000;stroke-width:1pt;stroke-opacity:1;fill:#000000;fill-opacity:1"
         d="M 0.0,0.0 L 5.0,-5.0 L -12.5,0.0 L 5.0,5.0 L 0.0,0.0 z "
         id="path2051" />
    </marker>
    <marker
       style="overflow:visible"
       id="marker1743"
       refX="0.0"
       refY="0.0"
       orient="auto"
       inkscape:stockid="Arrow1Sstart"
       inkscape:isstock="true">
      <path
         transform="scale(0.2) translate(6,0)"
         style="fill-rule:evenodd;stroke:#000000;stroke-width:1pt;stroke-opacity:1;fill:#000000;fill-opacity:1"
         d="M 0.0,0.0 L 5.0,-5.0 L -12.5,0.0 L 5.0,5.0 L 0.0,0.0 z "
         id="path1741" />
    </marker>
    <marker
       style="overflow:visible"
       id="marker1433"
       refX="0.0"
       refY="0.0"
       orient="auto"
       inkscape:stockid="Arrow1Sstart"
       inkscape:isstock="true">
      <path
         transform="scale(0.2) translate(6,0)"
         style="fill-rule:evenodd;stroke:#000000;stroke-width:1pt;stroke-opacity:1;fill:#000000;fill-opacity:1"
         d="M 0.0,0.0 L 5.0,-5.0 L -12.5,0.0 L 5.0,5.0 L 0.0,0.0 z "
         id="path1431" />
    </marker>
    <marker
       style="overflow:visible"
       id="marker1375"
       refX="0.0"
       refY="0.0"
       orient="auto"
       inkscape:stockid="Arrow2Mstart"
       inkscape:isstock="true">
      <path
         transform="scale(0.6) translate(0,0)"
         d="M 8.7185878,4.0337352 L -2.2072895,0.016013256 L 8.7185884,-4.0017078 C 6.9730900,-1.6296469 6.9831476,1.6157441 8.7185878,4.0337352 z "
         style="fill-rule:evenodd;stroke-width:0.625;stroke-linejoin:round;stroke:#000000;stroke-opacity:1;fill:#000000;fill-opacity:1"
         id="path1373" />
    </marker>
    <marker
       style="overflow:visible"
       id="marker1323"
       refX="0.0"
       refY="0.0"
       orient="auto"
       inkscape:stockid="Arrow2Mstart"
       inkscape:isstock="true">
      <path
         transform="scale(0.6) translate(0,0)"
         d="M 8.7185878,4.0337352 L -2.2072895,0.016013256 L 8.7185884,-4.0017078 C 6.9730900,-1.6296469 6.9831476,1.6157441 8.7185878,4.0337352 z "
         style="fill-rule:evenodd;stroke-width:0.625;stroke-linejoin:round;stroke:#000000;stroke-opacity:1;fill:#000000;fill-opacity:1"
         id="path1321" />
    </marker>
    <marker
       style="overflow:visible"
       id="Arrow2Mstart"
       refX="0.0"
       refY="0.0"
       orient="auto"
       inkscape:stockid="Arrow2Mstart"
       inkscape:isstock="true">
      <path
         transform="scale(0.6) translate(0,0)"
         d="M 8.7185878,4.0337352 L -2.2072895,0.016013256 L 8.7185884,-4.0017078 C 6.9730900,-1.6296469 6.9831476,1.6157441 8.7185878,4.0337352 z "
         style="fill-rule:evenodd;stroke-width:0.625;stroke-linejoin:round;stroke:#000000;stroke-opacity:1;fill:#000000;fill-opacity:1"
         id="path889" />
    </marker>
    <marker
       style="overflow:visible"
       id="Arrow1Sstart"
       refX="0.0"
       refY="0.0"
       orient="auto"
       inkscape:stockid="Arrow1Sstart"
       inkscape:isstock="true">
      <path
         transform="scale(0.2) translate(6,0)"
         style="fill-rule:evenodd;stroke:#000000;stroke-width:1pt;stroke-opacity:1;fill:#000000;fill-opacity:1"
         d="M 0.0,0.0 L 5.0,-5.0 L -12.5,0.0 L 5.0,5.0 L 0.0,0.0 z "
         id="path877" />
    </marker>
    <marker
       style="overflow:visible;"
       id="marker1207"
       refX="0.0"
       refY="0.0"
       orient="auto"
       inkscape:stockid="Arrow1Send"
       inkscape:isstock="true"
       inkscape:collect="always">
      <path
         transform="scale(0.2) rotate(180) translate(6,0)"
         style="fill-rule:evenodd;stroke:#000000;stroke-width:1pt;stroke-opacity:1;fill:#000000;fill-opacity:1"
         d="M 0.0,0.0 L 5.0,-5.0 L -12.5,0.0 L 5.0,5.0 L 0.0,0.0 z "
         id="path1205" />
    </marker>
    <marker
       style="overflow:visible;"
       id="Arrow1Send"
       refX="0.0"
       refY="0.0"
       orient="auto"
       inkscape:stockid="Arrow1Send"
       inkscape:isstock="true">
      <path
         transform="scale(0.2) rotate(180) translate(6,0)"
         style="fill-rule:evenodd;stroke:#000000;stroke-width:1pt;stroke-opacity:1;fill:#000000;fill-opacity:1"
         d="M 0.0,0.0 L 5.0,-5.0 L -12.5,0.0 L 5.0,5.0 L 0.0,0.0 z "
         id="path880" />
    </marker>
    <marker
       style="overflow:visible"
       id="Arrow2Lstart"
       refX="0.0"
       refY="0.0"
       orient="auto"
       inkscape:stockid="Arrow2Lstart"
       inkscape:isstock="true">
      <path
         transform="scale(1.1) translate(1,0)"
         d="M 8.7185878,4.0337352 L -2.2072895,0.016013256 L 8.7185884,-4.0017078 C 6.9730900,-1.6296469 6.9831476,1.6157441 8.7185878,4.0337352 z "
         style="fill-rule:evenodd;stroke-width:0.625;stroke-linejoin:round;stroke:#000000;stroke-opacity:1;fill:#000000;fill-opacity:1"
         id="path883" />
    </marker>
    <marker
       style="overflow:visible;"
       id="Arrow1Lend"
       refX="0.0"
       refY="0.0"
       orient="auto"
       inkscape:stockid="Arrow1Lend"
       inkscape:isstock="true">
      <path
         transform="scale(0.8) rotate(180) translate(12.5,0)"
         style="fill-rule:evenodd;stroke:#000000;stroke-width:1pt;stroke-opacity:1;fill:#000000;fill-opacity:1"
         d="M 0.0,0.0 L 5.0,-5.0 L -12.5,0.0 L 5.0,5.0 L 0.0,0.0 z "
         id="path868" />
    </marker>
    <linearGradient
       inkscape:collect="always"
       xlink:href="#linearGradient2583"
       id="linearGradient3053"
       gradientUnits="userSpaceOnUse"
       x1="33.786497"
       y1="252.32745"
       x2="58.88566"
       y2="252.32745" />
  </defs>
  <sodipodi:namedview
     id="base"
     pagecolor="#ffffff"
     bordercolor="#666666"
     borderopacity="1.0"
     inkscape:pageopacity="0.0"
     inkscape:pageshadow="2"
     inkscape:zoom="2.8284271"
     inkscape:cx="541.59057"
     inkscape:cy="616.2041"
     inkscape:document-units="mm"
     inkscape:current-layer="layer1"
     inkscape:document-rotation="0"
     showgrid="false"
     showguides="false"
     inkscape:window-width="1440"
     inkscape:window-height="837"
     inkscape:window-x="-8"
     inkscape:window-y="-8"
     inkscape:window-maximized="1" />
  <metadata
     id="metadata5">
    <rdf:RDF>
      <cc:Work
         rdf:about="">
        <dc:format>image/svg+xml</dc:format>
        <dc:type
           rdf:resource="http://purl.org/dc/dcmitype/StillImage" />
        <dc:title></dc:title>
      </cc:Work>
    </rdf:RDF>
  </metadata>
  <g
     inkscape:label="Calque 1"
     inkscape:groupmode="layer"
     id="layer1">
    <g
       id="g1977"
       transform="matrix(0.60989297,0,0,0.60989297,43.018833,85.228229)"
       inkscape:export-xdpi="95.800003"
       inkscape:export-ydpi="95.800003">
      <path
         id="path863"
         style="opacity:0.799435;fill:none;fill-opacity:1;stroke:#000000;stroke-width:2;stroke-linejoin:round;stroke-miterlimit:4;stroke-dasharray:none;stroke-opacity:1;marker-end:url(#marker1207)"
         d="m 125.41249,96.308334 c 0.14086,17.388346 -14.0965,31.485416 -31.485412,31.485416 -17.388915,0 -31.485416,-14.0965 -31.485416,-31.485416 0,-17.388915 14.096501,-31.485416 31.485416,-31.485416 17.388912,2e-6 31.353122,15.154836 31.485412,31.485416 z"
         sodipodi:nodetypes="sssss" />
      <g
         aria-label="Boucle
d'évènements"
         id="text1855"
         style="font-style:normal;font-weight:normal;font-size:7.05556px;line-height:1.25;font-family:sans-serif;text-align:center;text-anchor:middle;fill:#000000;fill-opacity:1;stroke:none;stroke-width:0.264583">
        <path
           d="m 84.158087,92.072584 v 1.884468 h 1.116212 q 0.561551,0 0.830268,-0.230821 0.272163,-0.234267 0.272163,-0.713136 0,-0.482313 -0.272163,-0.70969 -0.268717,-0.230821 -0.830268,-0.230821 z m 0,-2.11529 v 1.550294 h 1.030084 q 0.509875,0 0.757922,-0.189481 0.251492,-0.192925 0.251492,-0.585666 0,-0.389296 -0.251492,-0.582222 -0.248047,-0.192925 -0.757922,-0.192925 z m -0.69591,-0.571887 h 1.777671 q 0.795817,0 1.226454,0.33073 0.430638,0.330729 0.430638,0.940511 0,0.471979 -0.220487,0.751032 -0.220486,0.279053 -0.647678,0.347955 0.51332,0.110243 0.795818,0.461643 0.285943,0.347955 0.285943,0.871609 0,0.68902 -0.468534,1.064536 -0.468533,0.375515 -1.333252,0.375515 h -1.846573 z"
           style="font-size:7.05556px;text-align:center;text-anchor:middle;stroke-width:0.264583"
           id="path1884" />
        <path
           d="m 89.770151,91.114846 q -0.509875,0 -0.806153,0.399632 -0.296278,0.396186 -0.296278,1.088651 0,0.692464 0.292833,1.092096 0.296278,0.396186 0.809598,0.396186 0.506429,0 0.802708,-0.399631 0.296278,-0.399632 0.296278,-1.088651 0,-0.685575 -0.296278,-1.085206 -0.296279,-0.403077 -0.802708,-0.403077 z m 0,-0.537435 q 0.826823,0 1.298802,0.537435 0.471978,0.537436 0.471978,1.488283 0,0.947402 -0.471978,1.488282 -0.471979,0.537435 -1.298802,0.537435 -0.830269,0 -1.302247,-0.537435 -0.468533,-0.54088 -0.468533,-1.488282 0,-0.950847 0.468533,-1.488283 0.471978,-0.537435 1.302247,-0.537435 z"
           style="font-size:7.05556px;text-align:center;text-anchor:middle;stroke-width:0.264583"
           id="path1886" />
        <path
           d="m 92.52623,93.006205 v -2.335776 h 0.633898 v 2.31166 q 0,0.547771 0.213596,0.823379 0.213596,0.272162 0.640788,0.272162 0.51332,0 0.809598,-0.327284 0.299723,-0.327284 0.299723,-0.89228 v -2.187637 h 0.633898 v 3.858509 h -0.633898 v -0.592557 q -0.230821,0.3514 -0.537435,0.523655 -0.303168,0.16881 -0.706245,0.16881 -0.664904,0 -1.009413,-0.413412 -0.34451,-0.413411 -0.34451,-1.209229 z m 1.59508,-2.428794 z"
           style="font-size:7.05556px;text-align:center;text-anchor:middle;stroke-width:0.264583"
           id="path1888" />
        <path
           d="m 99.840172,90.818568 v 0.592557 q -0.268717,-0.148139 -0.54088,-0.220486 -0.268718,-0.07579 -0.544325,-0.07579 -0.616673,0 -0.957738,0.392742 -0.341064,0.389296 -0.341064,1.095541 0,0.706245 0.341064,1.098986 0.341065,0.389296 0.957738,0.389296 0.275607,0 0.544325,-0.07235 0.272163,-0.07579 0.54088,-0.223932 v 0.585667 q -0.265272,0.124024 -0.551215,0.186035 -0.282498,0.06201 -0.602892,0.06201 -0.87161,0 -1.38493,-0.54777 -0.513319,-0.547771 -0.513319,-1.477947 0,-0.943957 0.516764,-1.484837 0.52021,-0.540881 1.422826,-0.540881 0.292833,0 0.571886,0.06201 0.279053,0.05857 0.54088,0.179145 z"
           style="font-size:7.05556px;text-align:center;text-anchor:middle;stroke-width:0.264583"
           id="path1890" />
        <path
           d="m 100.9426,89.168366 h 0.6339 v 5.360572 h -0.6339 z"
           style="font-size:7.05556px;text-align:center;text-anchor:middle;stroke-width:0.264583"
           id="path1892" />
        <path
           d="m 106.20327,92.441209 v 0.310059 h -2.91456 q 0.0414,0.654568 0.39275,0.999078 0.35484,0.341065 0.98529,0.341065 0.36518,0 0.70625,-0.08957 0.34451,-0.08957 0.68213,-0.268717 v 0.599447 q -0.34107,0.144694 -0.69936,0.220486 -0.35829,0.07579 -0.72691,0.07579 -0.92329,0 -1.46417,-0.537435 -0.53743,-0.537435 -0.53743,-1.453831 0,-0.947402 0.50987,-1.502063 0.51332,-0.558106 1.38148,-0.558106 0.7786,0 1.2299,0.502984 0.45476,0.49954 0.45476,1.360813 z m -0.6339,-0.186035 q -0.007,-0.52021 -0.29283,-0.830269 -0.2825,-0.310059 -0.75104,-0.310059 -0.53054,0 -0.85094,0.299724 -0.31694,0.299723 -0.36518,0.844049 z"
           style="font-size:7.05556px;text-align:center;text-anchor:middle;stroke-width:0.264583"
           id="path1894" />
        <path
           d="m 72.770316,100.07555 v -2.087734 h 0.633898 v 5.360574 h -0.633898 v -0.57878 q -0.199815,0.34451 -0.506429,0.51332 -0.303168,0.16537 -0.730361,0.16537 -0.699354,0 -1.140327,-0.55811 -0.437527,-0.55811 -0.437527,-1.46761 0,-0.90951 0.437527,-1.467613 0.440973,-0.558106 1.140327,-0.558106 0.427193,0 0.730361,0.16881 0.306614,0.165365 0.506429,0.509879 z m -2.160076,1.34703 q 0,0.69935 0.285943,1.09898 0.289389,0.39619 0.792373,0.39619 0.502984,0 0.792372,-0.39619 0.289388,-0.39963 0.289388,-1.09898 0,-0.69936 -0.289388,-1.09554 -0.289388,-0.399634 -0.792372,-0.399634 -0.502984,0 -0.792373,0.399634 -0.285943,0.39618 -0.285943,1.09554 z"
           style="font-size:7.05556px;text-align:center;text-anchor:middle;stroke-width:0.264583"
           id="path1896" />
        <path
           d="m 75.309354,98.204858 v 1.912032 h -0.585667 v -1.912032 z"
           style="font-size:7.05556px;text-align:center;text-anchor:middle;stroke-width:0.264583"
           id="path1898" />
        <path
           d="m 79.9499,101.26066 v 0.31006 h -2.914552 q 0.04134,0.65457 0.392741,0.99908 0.354845,0.34106 0.985298,0.34106 0.36518,0 0.706245,-0.0896 0.344509,-0.0896 0.682129,-0.26872 v 0.59945 q -0.341065,0.14469 -0.699355,0.22048 -0.35829,0.0758 -0.726915,0.0758 -0.923287,0 -1.464167,-0.53744 -0.537435,-0.53743 -0.537435,-1.45383 0,-0.9474 0.509874,-1.502063 0.51332,-0.558106 1.381484,-0.558106 0.778593,0 1.2299,0.502985 0.454753,0.499534 0.454753,1.360814 z m -0.633898,-0.18604 q -0.0069,-0.52021 -0.292833,-0.83026 -0.282498,-0.310063 -0.751031,-0.310063 -0.530545,0 -0.850939,0.299723 -0.316949,0.29972 -0.365181,0.84405 z M 78.70622,97.705318 h 0.685574 l -1.123101,1.295357 h -0.5271 z"
           style="font-size:7.05556px;text-align:center;text-anchor:middle;stroke-width:0.264583"
           id="path1900" />
        <path
           d="m 80.535567,99.489879 h 0.671794 l 1.205785,3.238391 1.205784,-3.238391 h 0.671794 l -1.446941,3.858511 h -0.861275 z"
           style="font-size:7.05556px;text-align:center;text-anchor:middle;stroke-width:0.264583"
           id="path1902" />
        <path
           d="m 88.466182,101.26066 v 0.31006 h -2.914553 q 0.04134,0.65457 0.392741,0.99908 0.354845,0.34106 0.985298,0.34106 0.365181,0 0.706245,-0.0896 0.34451,-0.0896 0.68213,-0.26872 v 0.59945 q -0.341065,0.14469 -0.699355,0.22048 -0.35829,0.0758 -0.726916,0.0758 -0.923286,0 -1.464166,-0.53744 -0.537436,-0.53743 -0.537436,-1.45383 0,-0.9474 0.509875,-1.502063 0.513319,-0.558106 1.381484,-0.558106 0.778592,0 1.2299,0.502985 0.454753,0.499534 0.454753,1.360814 z m -0.633898,-0.18604 q -0.0069,-0.52021 -0.292833,-0.83026 -0.282498,-0.310063 -0.751032,-0.310063 -0.530545,0 -0.850939,0.299723 -0.316949,0.29972 -0.36518,0.84405 z m -1.58819,-3.369302 0.971517,1.288467 h -0.5271 L 85.56541,97.705318 Z"
           style="font-size:7.05556px;text-align:center;text-anchor:middle;stroke-width:0.264583"
           id="path1904" />
        <path
           d="m 92.713987,101.0195 v 2.32889 h -0.633898 v -2.30822 q 0,-0.54777 -0.213596,-0.81993 -0.213596,-0.272163 -0.640788,-0.272163 -0.513319,0 -0.809598,0.327283 -0.296278,0.32729 -0.296278,0.89228 v 2.18075 h -0.637343 v -3.858511 h 0.637343 v 0.599451 q 0.227376,-0.347959 0.53399,-0.520214 0.310059,-0.172255 0.713135,-0.172255 0.664904,0 1.005969,0.413412 0.341064,0.409967 0.341064,1.209227 z"
           style="font-size:7.05556px;text-align:center;text-anchor:middle;stroke-width:0.264583"
           id="path1906" />
        <path
           d="m 97.278742,101.26066 v 0.31006 h -2.914553 q 0.04134,0.65457 0.392741,0.99908 0.354845,0.34106 0.985298,0.34106 0.365181,0 0.706245,-0.0896 0.34451,-0.0896 0.68213,-0.26872 v 0.59945 q -0.341065,0.14469 -0.699355,0.22048 -0.35829,0.0758 -0.726916,0.0758 -0.923286,0 -1.464166,-0.53744 -0.537435,-0.53743 -0.537435,-1.45383 0,-0.9474 0.509874,-1.502063 0.51332,-0.558106 1.381484,-0.558106 0.778592,0 1.2299,0.502985 0.454753,0.499534 0.454753,1.360814 z m -0.633898,-0.18604 q -0.0069,-0.52021 -0.292833,-0.83026 -0.282498,-0.310063 -0.751032,-0.310063 -0.530545,0 -0.850939,0.299723 -0.316949,0.29972 -0.36518,0.84405 z"
           style="font-size:7.05556px;text-align:center;text-anchor:middle;stroke-width:0.264583"
           id="path1908" />
        <path
           d="m 101.32329,100.23058 q 0.23771,-0.427197 0.56844,-0.630458 0.33073,-0.203261 0.77859,-0.203261 0.60289,0 0.93018,0.423747 0.32728,0.420302 0.32728,1.198892 v 2.32889 h -0.63734 v -2.30822 q 0,-0.55466 -0.19637,-0.82338 -0.19637,-0.268713 -0.59945,-0.268713 -0.49265,0 -0.77859,0.327283 -0.28594,0.32729 -0.28594,0.89228 v 2.18075 h -0.63735 v -2.30822 q 0,-0.5581 -0.19637,-0.82338 -0.19637,-0.268713 -0.606335,-0.268713 -0.485759,0 -0.771702,0.330733 -0.285943,0.32728 -0.285943,0.88883 v 2.18075 h -0.637343 v -3.858511 h 0.637343 v 0.599451 q 0.217041,-0.354849 0.52021,-0.523659 0.303168,-0.16881 0.72003,-0.16881 0.4203,0 0.71313,0.213596 0.29628,0.213596 0.43753,0.620123 z"
           style="font-size:7.05556px;text-align:center;text-anchor:middle;stroke-width:0.264583"
           id="path1910" />
        <path
           d="m 108.49254,101.26066 v 0.31006 h -2.91456 q 0.0414,0.65457 0.39275,0.99908 0.35484,0.34106 0.98529,0.34106 0.36518,0 0.70625,-0.0896 0.34451,-0.0896 0.68213,-0.26872 v 0.59945 q -0.34107,0.14469 -0.69936,0.22048 -0.35829,0.0758 -0.72691,0.0758 -0.92329,0 -1.46417,-0.53744 -0.53743,-0.53743 -0.53743,-1.45383 0,-0.9474 0.50987,-1.502063 0.51332,-0.558106 1.38148,-0.558106 0.7786,0 1.2299,0.502985 0.45476,0.499534 0.45476,1.360814 z m -0.6339,-0.18604 q -0.007,-0.52021 -0.29283,-0.83026 -0.2825,-0.310063 -0.75104,-0.310063 -0.53054,0 -0.85094,0.299723 -0.31694,0.29972 -0.36518,0.84405 z"
           style="font-size:7.05556px;text-align:center;text-anchor:middle;stroke-width:0.264583"
           id="path1912" />
        <path
           d="m 112.74034,101.0195 v 2.32889 h -0.6339 v -2.30822 q 0,-0.54777 -0.21359,-0.81993 -0.2136,-0.272163 -0.64079,-0.272163 -0.51332,0 -0.8096,0.327283 -0.29628,0.32729 -0.29628,0.89228 v 2.18075 h -0.63734 v -3.858511 h 0.63734 v 0.599451 q 0.22738,-0.347959 0.53399,-0.520214 0.31006,-0.172255 0.71314,-0.172255 0.6649,0 1.00596,0.413412 0.34107,0.409967 0.34107,1.209227 z"
           style="font-size:7.05556px;text-align:center;text-anchor:middle;stroke-width:0.264583"
           id="path1914" />
        <path
           d="m 114.6317,98.394338 v 1.095541 h 1.30569 v 0.492649 h -1.30569 v 2.094622 q 0,0.47198 0.12747,0.60633 0.13091,0.13436 0.5271,0.13436 h 0.65112 v 0.53055 h -0.65112 q -0.73381,0 -1.01286,-0.27216 -0.27906,-0.27561 -0.27906,-0.99908 v -2.094622 h -0.46508 v -0.492649 h 0.46508 v -1.095541 z"
           style="font-size:7.05556px;text-align:center;text-anchor:middle;stroke-width:0.264583"
           id="path1916" />
        <path
           d="m 119.2309,99.603567 v 0.599443 q -0.26871,-0.1378 -0.5581,-0.206702 -0.28939,-0.0689 -0.59945,-0.0689 -0.47198,0 -0.70969,0.144692 -0.23426,0.14469 -0.23426,0.43408 0,0.22049 0.1688,0.34796 0.16881,0.12402 0.67869,0.23771 l 0.21704,0.0482 q 0.67524,0.14469 0.95774,0.40997 0.28594,0.26182 0.28594,0.7338 0,0.53744 -0.42719,0.85094 -0.42375,0.31351 -1.16789,0.31351 -0.31006,0 -0.64768,-0.062 -0.33417,-0.0586 -0.70624,-0.17914 v -0.65457 q 0.3514,0.18259 0.69246,0.27561 0.34107,0.0896 0.67524,0.0896 0.44786,0 0.68902,-0.15158 0.24116,-0.15503 0.24116,-0.43409 0,-0.25838 -0.1757,-0.39618 -0.17226,-0.13781 -0.76137,-0.26527 l -0.22049,-0.0517 q -0.58911,-0.12402 -0.85093,-0.37896 -0.26183,-0.25838 -0.26183,-0.70625 0,-0.54432 0.38585,-0.840598 0.38585,-0.296279 1.09554,-0.296279 0.3514,0 0.66146,0.05168 0.31006,0.05168 0.57188,0.155029 z"
           style="font-size:7.05556px;text-align:center;text-anchor:middle;stroke-width:0.264583"
           id="path1918" />
      </g>
    </g>
    <text
       xml:space="preserve"
       style="font-style:normal;font-weight:normal;font-size:4.30314px;line-height:1.25;font-family:sans-serif;text-align:center;text-anchor:middle;fill:#000000;fill-opacity:1;stroke:none;stroke-width:0.161367"
       x="100.74528"
       y="81.781723"
       id="text1999"
       inkscape:export-xdpi="95.800003"
       inkscape:export-ydpi="95.800003"><tspan
         sodipodi:role="line"
         id="tspan1997"
         x="100.74528"
         y="81.781723"
         style="font-size:4.30314px;text-align:center;text-anchor:middle;stroke-width:0.161367">Initialisation</tspan><tspan
         sodipodi:role="line"
         x="100.74528"
         y="87.160645"
         style="font-size:4.30314px;text-align:center;text-anchor:middle;stroke-width:0.161367"
         id="tspan2001">de Pygame</tspan></text>
    <text
       xml:space="preserve"
       style="font-style:normal;font-weight:normal;font-size:4.30314px;line-height:1.25;font-family:sans-serif;fill:#000000;fill-opacity:1;stroke:none;stroke-width:0.161367"
       x="100.88815"
       y="198.48537"
       id="text2005"
       inkscape:export-xdpi="95.800003"
       inkscape:export-ydpi="95.800003"><tspan
         sodipodi:role="line"
         id="tspan2003"
         x="100.88815"
         y="198.48537"
         style="font-size:4.30314px;text-align:center;text-anchor:middle;stroke-width:0.161367">Sortie</tspan><tspan
         sodipodi:role="line"
         x="100.88815"
         y="203.86429"
         style="font-size:4.30314px;text-align:center;text-anchor:middle;stroke-width:0.161367"
         id="tspan2007"> de la</tspan><tspan
         sodipodi:role="line"
         x="100.88815"
         y="209.24321"
         style="font-size:4.30314px;text-align:center;text-anchor:middle;stroke-width:0.161367"
         id="tspan2009"> boucle</tspan></text>
    <path
       style="fill:none;stroke:#000000;stroke-width:1.32391;stroke-linecap:butt;stroke-linejoin:miter;stroke-miterlimit:4;stroke-dasharray:none;stroke-opacity:1;marker-end:url(#Arrow1Mend)"
       d="m 100.77365,88.559156 v 29.844934 1.996"
       id="path2325"
       sodipodi:nodetypes="ccc"
       inkscape:export-xdpi="95.800003"
       inkscape:export-ydpi="95.800003" />
    <text
       xml:space="preserve"
       id="text2567"
       style="font-style:normal;font-weight:normal;font-size:10.5833px;line-height:1.25;font-family:sans-serif;white-space:pre;shape-inside:url(#rect2569);fill:#ff0000;fill-opacity:1;stroke:url(#linearGradient3053);stroke-width:0.999927;stroke-miterlimit:4;stroke-dasharray:none;"
       x="12.549582"
       y="0"
       transform="matrix(0.56724198,0,0,0.56724198,74.489878,23.546223)"
       inkscape:export-xdpi="95.800003"
       inkscape:export-ydpi="95.800003"><tspan
         x="33.19222"
         y="255.57272"><tspan
           style="text-align:center;text-anchor:middle;fill:#ff0000;stroke:url(#linearGradient3053);stroke-width:0.999927;stroke-miterlimit:4;stroke-dasharray:none;stroke-opacity:1">QUIT</tspan></tspan></text>
    <path
       style="fill:none;stroke:#000000;stroke-width:1.13504;stroke-linecap:butt;stroke-linejoin:miter;stroke-miterlimit:4;stroke-dasharray:none;stroke-opacity:1;marker-end:url(#marker2599)"
       d="m 100.77365,169.57527 v 21.93681 1.46712"
       id="path2595"
       sodipodi:nodetypes="ccc"
       inkscape:export-xdpi="95.800003"
       inkscape:export-ydpi="95.800003" />
  </g>
</svg>
